<?xml version="1.0" encoding="utf-8"?>
<!-- Generator: Adobe Illustrator 21.0.0, SVG Export Plug-In . SVG Version: 6.00 Build 0)  -->
<svg version="1.1" id="Layer_1" xmlns="http://www.w3.org/2000/svg" xmlns:xlink="http://www.w3.org/1999/xlink" x="0px" y="0px"
	 viewBox="0 0 500 500" style="enable-background:new 0 0 500 500;" xml:space="preserve">
<style type="text/css">
	.st0{fill:#279220;}
</style>
<g>
	<path class="st0" d="M161.9,180.9c-9.8,0-17.7,7.9-17.7,17.7s7.9,17.7,17.7,17.7c9.8,0,17.7-7.9,17.7-17.7S171.6,180.9,161.9,180.9
		z"/>
	<path class="st0" d="M338.1,216.3c9.8,0,17.7-7.9,17.7-17.7s-7.9-17.7-17.7-17.7s-17.7,7.9-17.7,17.7S328.4,216.3,338.1,216.3z"/>
	<path class="st0" d="M474.8,78.1L474.8,78.1c-12.5-8.1-41.3-19.8-69.4-19.4c-1-0.2-1.9-0.3-2.9-0.3c-5.1,0.2-10,1.1-14.7,2.5
		c-3.5,0.9-6.9,2-9.9,3.4c-24.7,11.2-46.2,6.1-71.2,0.1c-16.5-3.9-35.2-8.4-56.6-8.4c-21.4,0-40.1,4.5-56.7,8.4
		c-25,5.9-46.6,11.1-71.2-0.1c-3-1.4-6.4-2.5-9.9-3.4c-4.7-1.4-9.6-2.2-14.7-2.5c-1,0-2,0.1-2.9,0.3c-28.2-0.4-56.9,11.3-69.4,19.4
		C16.2,83.9,12,89.5,12,95.8c0,16.4,16.2,47.1,47.1,47.1c14.7,0,30,0.2,41.7,2.8c14.1,3.1,14.1,7.5,14.1,8.9c0,19.3,2,37.5,3.9,55.1
		c1.8,16.7,3.5,32.4,3.5,48.3c0,68.7,15.3,101.4,68.1,145.4c7.2,23.9,31.5,40.5,59.7,40.5c28.1,0,52.5-16.6,59.7-40.5
		c52.8-44,68.1-76.8,68.1-145.4c0-15.9,1.7-31.7,3.5-48.4c1.9-17.6,3.8-35.8,3.8-55c0-1.4,0-5.8,14.1-8.9c11.6-2.6,27-2.8,41.7-2.8
		c30.9,0,47.1-30.6,47.1-47.1C488,89.5,483.8,83.9,474.8,78.1z M312.5,357.9c-5.3-2.1-11.3,0.5-13.4,5.8
		c-5.3,13.4-12.9,21.3-22.5,23.3c-6.7,1.4-12.8-0.3-16.3-1.9v-12.3c7.3-5.4,21-15.8,25.3-19c4.5-3.4,5.5-9.9,2-14.5
		c-1.7-2.2-4.1-3.6-6.8-4c-2.7-0.4-5.5,0.3-7.7,2c-7.4,5.6-17,12.9-23.1,17.4l-23.2-17.4c-2.2-1.7-4.9-2.4-7.7-2
		c-2.7,0.4-5.2,1.8-6.8,4c-1.7,2.2-2.4,4.9-2,7.7s1.8,5.2,4,6.8l25.2,18.9V385c-3.5,1.6-9.6,3.3-16.3,1.9c-9.6-2-17.2-9.8-22.5-23.3
		c-1.6-4.1-5.5-6.5-9.6-6.5c-1.3,0-2.5,0.2-3.8,0.7c-3.9,1.5-6.3,5.1-6.5,9c-28.9-29.7-38.1-57.2-38.1-108.9c0-17-1.8-33.3-3.6-50.6
		c-1.8-17-3.7-34.6-3.7-52.8c0-14.7-10.5-24.7-30.3-29.1c-13.7-3-30.3-3.3-46.1-3.3c-16.1,0-24.7-16.3-26.2-24.2
		c3.6-3.1,14.7-9.5,30.9-14.1c16.2-4.6,31.4-5.7,42.8-3c8.8,2.8,16.2,8.9,22,18.2c6.3,10.2,8.4,20.6,8.4,20.7
		c0.9,4.9,5.2,8.4,10.2,8.4c0.6,0,1.3-0.1,1.9-0.2c2.7-0.5,5.1-2,6.6-4.3s2.1-5,1.6-7.7c-0.1-0.5-2.3-11.9-9.2-24.3
		c17.1,0.8,33.1-3,49.9-7c16.2-3.8,32.9-7.8,51.9-7.8c19,0,35.7,4,51.9,7.8c16.8,4,32.8,7.8,49.9,7c-6.9,12.4-9.1,23.8-9.2,24.3
		c-0.5,2.7,0.1,5.5,1.6,7.7s3.9,3.8,6.6,4.3c0.6,0.1,1.3,0.2,1.9,0.2c5,0,9.2-3.5,10.2-8.4c0.1-0.3,6.3-31.3,30.7-38.9
		c11.3-2.6,26.4-1.5,42.5,3.1c16.2,4.6,27.3,10.9,30.9,14.1c-1.4,7.9-10.1,24.2-26.2,24.2c-15.8,0-32.5,0.3-46.1,3.3
		c-19.8,4.4-30.3,14.4-30.3,29.1c0,18.2-1.9,35.8-3.7,52.9c-1.9,17.2-3.6,33.5-3.6,50.5c0,51.7-9.1,79.1-38.1,108.9
		C318.8,363,316.4,359.4,312.5,357.9z M250,423.2c-15.1,0-28.8-6.9-35.9-17.4c4.5,1.5,9.3,2.3,14.3,2.3c3,0,6-0.3,9-0.9
		c4.5-0.9,8.9-2.4,12.6-4.3c3.7,1.9,8.1,3.4,12.6,4.3c3,0.6,6,0.9,9,0.9c4.9,0,9.7-0.8,14.3-2.3C278.8,416.3,265.1,423.2,250,423.2z
		"/>
</g>
</svg>
