<?xml version="1.0" encoding="utf-8"?>
<!-- Generator: Adobe Illustrator 21.0.0, SVG Export Plug-In . SVG Version: 6.00 Build 0)  -->
<svg version="1.1" id="Layer_1" xmlns="http://www.w3.org/2000/svg" xmlns:xlink="http://www.w3.org/1999/xlink" x="0px" y="0px"
	 viewBox="0 0 500 500" style="enable-background:new 0 0 500 500;" xml:space="preserve">
<style type="text/css">
	.st0{fill:none;}
	.st1{fill:#279220;}
</style>
<polygon class="st0" points="716,-209.6 728.3,-209.6 728.8,-213.3 719,-216.5 "/>
<polygon class="st0" points="491.4,-213.6 482.8,-216.5 479.8,-209.6 491.2,-209.6 "/>
<polygon class="st0" points="243.6,253.4 255.9,253.4 256.4,249.8 246.6,246.6 "/>
<g>
	<path class="st1" d="M496.3,131.2c-0.8-1.4-21.6-34.9-53.3-61.6c-2.2-3.7-7.7-12.2-16.6-20c-15.6-13.4-33.9-18-53-13.4
		c-11.3,2.7-20.4,9-26.3,18.2c-5.3,8.3-7.6,18.3-6.2,28.3c1.9,13.7,10.2,25.3,22.5,31.3c-1.4,4.3-3.8,10.8-6.2,12.3
		c-17.3,10.8-59.9,10.3-97.5,9.9c-28.9-0.4-56.3-0.7-74.8,3.6c-3.1-2.3-6.1-10.4-7.8-15.8c16-7.8,26.8-22.9,29.2-40.7
		c1.7-13-1.2-26.1-8.1-36.9c-7.7-12-19.5-20.2-34.3-23.7c-24.9-6.1-48.7-0.1-69,17.4c-11.6,10.1-18.8,21.1-21.6,26
		C32.1,100.9,5.1,144.5,4,146.4c-1.6,2.7-2,5.9-1,8.9l4.3,12.8c3.5,10.2,13.1,17,23.8,17c1.7,0,3.4-0.2,5-0.5
		c10.7-2.1,20.6-2.7,30.4-3.3c11.6-0.8,22.7-1.5,33.1-4.8c3.3,7.2,6.2,17.8,9.5,29.8c6,21.8,13.2,48.3,27.2,71.1
		c-3.4,5.5-6.8,9.1-6.9,9.2c-1.7,1.9-2.5,4.2-2.2,6.5l12.8,87.2c0.7,3.9,4.1,6.8,8,6.8h28.6c2.7,0,5.2-1.3,6.7-3.6
		c1.5-2.3,1.7-5.1,0.7-7.6l-11.9-27.6l-5.2-38c3.3,2.3,6.7,4.4,10.3,6.3l12.2,50.9v62.2l-15.2,35.1c-1.4,3.2-1.1,6.9,0.9,9.8
		c1.9,3,5.2,4.7,8.7,4.7h37.2c5.5,0,10.1-4.3,10.4-9.7l8.2-135.5c2.6,0.2,5.3,0.3,8,0.4c5.8,0.3,10.7-4.1,10.9-9.9
		s-4.3-10.6-9.9-10.9c-2.5-0.1-5.1-0.2-7.6-0.4l0.5-8.4c0.3-5.8-4.1-10.7-9.7-11.1c-2.8-0.2-5.5,0.8-7.6,2.6
		c-2.1,1.9-3.3,4.4-3.5,7.2l-7.8,129.2l-2.3-0.8c0-0.1,0-0.2,0-0.3v-65.6c0-0.8-0.1-1.6-0.3-2.4l-13.6-56.9c-0.8-3.2-2.9-5.7-5.8-7
		c-5.2-2.4-10-5.3-14.3-8.5c-4.4-3.3-8.4-7.1-12-11.1c-2.7-3.1-5.2-6.3-7.5-9.7c-6.4-9.4-11.4-20-15.5-30.9
		c-4.9-13-8.5-26.4-11.9-38.8c-3.7-13.4-6.9-25.1-11.1-34.2c4.3-3.5,8.1-7.7,11.5-12.6c1.6-2.3,2.1-5.1,1.6-7.8
		c-0.5-2.7-2.1-5.1-4.4-6.7c-4.8-3.2-11.3-2-14.5,2.8c-10.7,15.8-25.2,16.7-47,18c-9.8,0.6-20.9,1.4-33,3.7
		c-2.3,0.4-4.5-0.7-5.2-2.8l-2.8-8c7-10.7,28.1-40.4,56.7-66.2c21.6,18.1,45.4,14,46.5,13.8c3.8-0.7,6.9-3.5,8-7.2
		c2.9-9.3,8.5-9.7,10.7-9.6c2.4,0.2,5.3,1.5,5.7,4.7c0.5,3.5-0.1,6-1.8,8c-4.4,5.2-15.6,6.9-20.5,7c-4.5,0.1-8.4,2.9-9.7,7.2
		c-1.4,4.1,0,8.9,3.6,11.6c1,0.8,10.1,7.4,23.7,7.7c3.3,0.1,6.5-0.1,9.6-0.4c2.1,6.5,4.4,12.6,7.5,17.8c2.6,4.2,5.7,7.8,9.7,10.3
		c0.8,0.5,1.7,1,2.6,1.5c28.5,15.7,82.8,15.1,135.5,14.6v-3.5l0.2,3.5c33.1-0.3,64.7-0.7,86.1,2.9c4.6,0.8,8.8,1.7,12.4,2.9
		c1.1,0.4,2.2,0.8,3.3,1.2c33.5,12.4,40.6,36.4,40.6,54.3c0,12.9-3.2,24.4-6.3,35.4c-4.1,15.1-8.6,30.8-5,49.6
		c3.2,17,13.7,31.7,19.1,38.4l-11.1,74.9l-5.2-1.7l9.7-70.4c0.6-4-1.3-8-4.6-10.2c-48.4-31.8-65.2-61.4-70.2-72.7
		c-2.3-5.3-8.5-7.7-13.8-5.3c-2.6,1.1-4.5,3.2-5.5,5.8c-1,2.6-0.9,5.5,0.2,8c0.8,1.8,1.7,3.7,2.7,5.7c-2.8,1-6.2,2.2-10,3.5
		c-5.1,1.7-10.9,3.5-17.3,5.4c-1.5,0.4-3.1,0.9-4.7,1.3c-5,1.4-10.3,2.7-15.8,3.9c-12.8,2.9-26.7,5.1-40.4,5.9
		c-5.8,0.3-10.2,5.3-9.7,11.1c0.3,5.5,4.9,9.8,10.4,9.8c0.2,0,0.4,0,0.6,0c13.8-0.8,27.6-3,40.4-5.7l3.1,51.6c0.2,4.2,3.8,7.5,8,7.5
		h28.6c2.7,0,5.2-1.3,6.7-3.6c1.5-2.3,1.7-5.1,0.7-7.6l-11.7-27v-30.2c9.7-3.1,17.6-5.9,22.5-7.8c14.2,19.3,33.8,37.4,58.2,54.2
		l-8.8,63.6l-15.5,35.9c-1.4,3.2-1.1,6.9,0.9,9.8c1.9,3,5.2,4.7,8.7,4.7h37.1c5.1,0,9.6-3.8,10.4-8.9L484.1,357
		c0.4-3-0.7-6.1-2.9-8.5c-0.3-0.3-14.1-15.2-17.2-31.9c-2.6-14.1,0.7-26.1,4.6-40.1c3.5-12.4,6.9-25.3,6.9-41
		c0-35.3-19.6-61.5-55.4-74.4c0.8-2.5,1.7-4.8,2.6-6.7c8,2.5,16.5,3.1,25.4,3.7c7.5,0.4,15.1,0.9,23.4,2.5c1.3,0.2,2.5,0.4,3.9,0.4
		c8.2,0,15.7-5.2,18.3-13.1l3.3-9.9C497.9,135.7,497.6,133.3,496.3,131.2z M202.7,451.7l8.7,2.9l-0.2,4h-11.5L202.7,451.7z
		 M162.3,365.9l2.3,5.3h-9.4l-0.4-2.8L162.3,365.9z M146.3,291.2c0.8,1,1.6,2,2.5,2.9c-0.2,0.8-0.2,1.7-0.1,2.6l7.5,54.1l-4,1.3
		l-8.5-57.6C144.4,293.7,145.3,292.5,146.3,291.2z M170.4,104c2.5-5.3,3.3-11.6,2.4-18.2c-1.7-12.3-11.9-21.6-24.7-22.7
		c-0.8-0.1-1.6-0.1-2.5-0.1c-11.3,0-21.2,6.5-27,17.4c-1.7-0.1-3.8-0.3-6.2-0.8c-6.5-1.3-12.3-4.1-17.5-8.4
		c3.1-4.4,7.7-9.9,13.8-15.2c15.1-13.1,32-17.4,50.4-12.9c20.9,5.1,28.5,23.1,26.5,37.5C184,93.1,177.2,100.1,170.4,104z
		 M334.3,324.4c1.2-0.3,2.3-0.6,3.4-0.9v27.1c0,0.1,0,0.1,0,0.2l-1.8,0.6L334.3,324.4z M337.1,371.1l-0.1-3l6.7-2.2l2.3,5.3H337.1z
		 M447.9,458.5h-12.3l3-6.9l9.7,3.2L447.9,458.5z M356.7,80.6c-1.5-11.1,4.3-24.9,20.4-28.9c14.1-3.4,27.1-0.1,38.7,9.9
		c4.7,4.1,8.2,8.3,10.6,11.7c-4,3.3-8.5,5.5-13.4,6.5c-1.9,0.4-3.4,0.5-4.7,0.6c-4.5-8.4-12.1-13.4-20.8-13.4c-0.7,0-1.3,0-1.9,0.1
		c-9.9,0.8-17.7,8-19,17.4c-0.7,5.1-0.1,9.9,1.9,14C363.2,95.7,358,90.3,356.7,80.6z M478.3,142.7c-0.5,1.6-2.2,2.4-4,2.2
		c-9.3-1.8-17.8-2.4-25.4-2.8c-16.8-1-27.9-1.7-36.1-13.9c-2.4-3.7-7.4-4.6-11.1-2.2c-1.8,1.2-3,3-3.4,5.1c-0.4,2.1,0,4.2,1.3,6
		c2.6,3.8,5.5,7,8.8,9.7c-1.4,3-2.6,6.3-3.8,10c-23.9-4.5-57.4-4.2-92.6-3.7c-22.6,0.2-46.6,0.5-68.1-0.7c5,0,10.1,0.1,15.3,0.1
		l0.1-2.7v2.7c41.8,0.4,84.9,0.9,106.1-12.4c6.9-4.3,10.3-12.5,13.2-21.6c2.4,0.2,4.8,0.4,7.3,0.3c10.5-0.2,17.5-5.3,18.2-5.9
		c2.7-2.1,3.8-5.7,2.7-8.9c-1-3.3-4-5.5-7.5-5.6c-3.7-0.1-12.3-1.4-15.7-5.4c-1.3-1.6-1.8-3.5-1.4-6.2c0.3-2.4,2.5-3.5,4.4-3.6
		c1.7-0.1,6,0.3,8.2,7.4c0.9,2.9,3.3,5,6.2,5.6c0.8,0.1,19.1,3.3,35.8-10.6c22,19.8,38.2,42.6,43.6,50.9L478.3,142.7z"/>
	<path class="st1" d="M243.1,239.3c-5.3,0-9.8,4-10.6,9.2c-0.1,0.5-0.1,1.1-0.1,1.6c0,6,4.8,10.8,10.8,10.8c4.5,0,8.4-2.8,10-6.8
		c0.5-1.2,0.8-2.6,0.8-4C254,244,249.1,239.3,243.1,239.3z"/>
</g>
</svg>
