<?xml version="1.0" encoding="utf-8"?>
<!-- Generator: Adobe Illustrator 21.0.0, SVG Export Plug-In . SVG Version: 6.00 Build 0)  -->
<svg version="1.1" xmlns="http://www.w3.org/2000/svg" xmlns:xlink="http://www.w3.org/1999/xlink" x="0px" y="0px"
	 viewBox="0 0 444.3 283.5" style="enable-background:new 0 0 444.3 283.5;" xml:space="preserve">
<style type="text/css">
	.st0{fill:#9E6500;}
	.st1{fill:#FFCC56;}
	.st2{fill:#49A242;}
	.st3{fill:#49A94A;}
	.st4{font-family:'Poppins-Light';}
	.st5{font-size:13.9125px;}
	.st6{letter-spacing:1;}
</style>
<g id="Layer_2">
</g>
<g id="Layer_1">
	<g>
		<g>
			<g>
				<path class="st0" d="M207.2,113.8C207.2,113.8,207.2,113.8,207.2,113.8c0,0.1,0.1,0.2,0.2,0.3c0-0.1,0-0.1,0-0.1
					C207.3,114,207.3,113.9,207.2,113.8z"/>
				<path class="st0" d="M211.1,119C211.1,119,211.1,119,211.1,119c-0.1,0-0.2,0-0.3,0.1c0,0,0,0,0,0c0,0,0.1,0,0.1,0
					C211,119.1,211.1,119.1,211.1,119z"/>
				<path class="st0" d="M210,120.5C210,120.5,210,120.6,210,120.5c0.2,0,0.3-0.1,0.5-0.1c-0.1,0-0.2,0-0.3,0
					C210.1,120.5,210.1,120.5,210,120.5z"/>
				<path class="st0" d="M206.8,113.8c0-0.1-0.1-0.1-0.1-0.2C206.7,113.7,206.7,113.7,206.8,113.8
					C206.8,113.8,206.8,113.8,206.8,113.8z"/>
				<path class="st0" d="M168.2,64.2c0.2,0,0.3-0.1,0.5-0.1c0,0,0-0.1,0.1-0.1c0,0,0,0-0.1,0c-0.3,0.1-0.7,0.1-1,0.2
					c0.1,0,0.2,0.1,0.3,0.1C168,64.3,168.1,64.3,168.2,64.2z"/>
				<path class="st0" d="M170.8,65.3C170.8,65.3,170.8,65.3,170.8,65.3c0.1,0,0.1,0,0.1,0C170.8,65.3,170.8,65.3,170.8,65.3z"/>
				<path class="st0" d="M206.8,113.4c0,0.1-0.1,0.1-0.1,0.2c0,0,0,0,0,0C206.7,113.5,206.8,113.5,206.8,113.4
					C206.8,113.4,206.8,113.4,206.8,113.4z"/>
				<path class="st0" d="M270.3,70.4c1.8-1.6,1.7-4.8,1-7.4c1.2-1.3,1.2-3.8,0.8-5.5c-0.4-1.6-1-3.2-1.9-4.7
					c0.3-1.4-0.7-3.3-1.3-4.4c-0.7-1.2-1.8-2.5-3.2-3.2c0-0.1-0.1-0.1-0.1-0.2c0,0-0.1-0.1-0.1-0.1c-0.1-2.2-1.4-4.3-3-5.8
					c-1-1-3.2-2.6-4.9-2.7c-1.4-1.9-3.7-3.5-6-3.8c-0.2,0-0.4-0.1-0.6-0.1c-0.2,0.1-0.4,0.2-0.6,0.2c-0.9-0.9-2.1-1.5-3.4-1.9
					c-0.5-0.2-1.2-0.4-1.8-0.5c-0.2-0.2-0.5-0.3-0.8-0.5c-0.2,0.1-0.4,0.1-0.7,0.1c-0.1,0-0.2,0.1-0.4,0.1c-0.3,0-0.6,0.1-0.9,0.1
					c-0.1,0-0.1,0.1-0.2,0.1c0,0,0,0,0,0c0.1,0,0.1,0,0.2,0.1c-0.1,0-0.2,0.1-0.3,0.1c-0.1,0-0.1,0.1-0.2,0.2c-1-1.3-2.4-1.3-4-1.1
					c-1.6,0.2-3-0.4-4.5-0.5c-1.6-0.1-3.2-0.1-4.8-0.2c-2.7-0.1-8-1.2-10.4,0.8c-0.3,0-0.5,0.1-0.7,0.2c-0.9-1-2.3-1.4-3.4-0.7
					c-0.7-0.5-1.5-0.7-2.4-0.7c-0.6,0-1.1,0.2-1.6,0.4c-0.3,0.1-0.9-0.3-1.2-0.3c-0.9,0-1.8,0.3-2.5,0.8c-0.1,0-0.1,0-0.1,0
					c-0.1,0.1-0.2,0.2-0.2,0.4c-0.2,0.2-0.3,0.4-0.4,0.7c-0.2,0.3-0.5,0.4-0.9,0.3c-0.3-0.1-0.6-0.2-0.9-0.3c0.1-0.1,0.2-0.4,0-0.5
					c-1.4-1.2-2.4-1.5-4.3-1.1c-1.3,0.2-2.7-0.6-4.1-0.4c-2,0.2-3.7,0.7-5.2,1.8c-0.9-0.4-2.1-0.4-3.1-0.3c-1.2,0.1-2.5,1.1-2.2,2.3
					c-0.1,0-0.2,0.1-0.3,0.1c0-0.3-0.1-0.7-0.5-0.8c-1.4-0.4-3.4-0.7-4.6,0.3c-0.2-0.2-0.5-0.3-0.8-0.5c-0.7-0.5-1.5-0.7-2.5-0.6
					c-0.3,0-0.5,0.1-0.8,0.2c-0.1,0-0.2,0-0.3,0c0,0-0.1,0.1-0.1,0.1c-0.6,0.3-1.2,0.7-1.6,1.2c-0.1,0.1-0.2,0.3-0.2,0.4
					c0,0,0,0,0,0c-0.1,0.1-0.1,0.1-0.2,0.2c0,0,0,0,0,0c-0.1,0-0.1,0.1-0.2,0.1c-0.2,0-0.5,0-0.6-0.1c0.4-0.2,0.4-0.8,0-1
					c-1-0.4-1.8-0.6-2.9-0.6c-0.2,0-0.5,0.1-0.8,0.2c-0.5,0-1.1,0-1.6,0.1c-2-0.6-4.2,0.2-6.2-0.5c-0.4-0.1-0.8,0-1.1,0.2
					c-0.4-0.5-0.9-0.8-1.5-1c0,0-0.1,0-0.1,0c0.4-0.2,0.6-0.8,0.2-1.3c-1-0.8-2.3-1.6-3.6-1.3c-0.1,0-0.2,0-0.3,0.1
					c0-0.2-0.1-0.3-0.3-0.4c-0.6-0.3-1.1-0.6-1.8-0.8c-0.6-0.1-1.2-0.1-1.8,0c-0.5,0.1-0.8,0.5-0.8,0.9c-0.2-0.1-0.5-0.1-0.7-0.2
					c0.2-0.2,0.2-0.5,0-0.8c-0.7-0.8-1.7-1-2.6-0.6c-0.2,0.1-0.4,0.1-0.5,0.2c0,0,0,0,0,0c-0.6-0.9-1.2-1.6-2.3-1.9
					c-0.8-0.2-1.4-0.1-2.3,0c0,0-0.6-0.6-0.8-0.6c-0.7-0.2-1.7-0.3-2.5-0.3c-1.2-1.6-4.1-2.9-5.4-3.3c-0.2-0.1-0.4-0.1-0.7,0
					c1.9-2,3.6-4.2,5.6-6c0.4-0.3,0.4-0.8,0.1-1.2c-0.3,0-0.6,0.1-0.9,0.1c-2.3-0.5-4.6-0.9-6.8-1.8c-1.2-0.5-2.5-1.1-3.9-1.1
					c0-1.6-1.4-2.3-2.8-2.4c-0.4-2.5-3.4-4.5-5.8-3.7c-0.2-0.6-0.7-1.1-1.4-1.4c-0.1-0.1-0.1-0.1-0.2-0.2c-0.4-0.4-1.1-0.8-1.8-0.6
					c-0.1,0-0.2,0.1-0.2,0.1c0,0,0,0,0,0c-0.2,0-0.3,0-0.5,0c-0.2-0.2-0.4-0.3-0.6-0.3c-0.5-0.9-2.1-1.2-3-1.2
					c-0.6,0-1.3,0.2-1.5,0.8c0,0.1,0,0.1-0.1,0.2c-0.7-0.3-1.5-0.4-2.1-0.1c-1.6-1.1-4.8-1.3-4.9,0.7c-0.1,0-0.1,0-0.2,0.1
					c0,0-0.1,0-0.1,0c-0.6-0.2-1.3-0.3-1.8,0c-0.5,0.3-0.9,0.7-1,1.3c-0.5-0.6-1.3-0.8-2.1-0.6c-0.6,0.2-1.4,0.8-1.6,1.5
					c-0.9-0.7-2.2-0.2-2.8,0.8c-0.4,0.7-1.5,0.3-2,1.1c-0.3,0.5-0.4,1-0.4,1.5c-0.8,0.3-1.5,1-1.6,1.9c-0.1,0.9,0.1,1.7,0.6,2.3
					c0.1,0,0.2,0.1,0.2,0.1c0.1,0,0.1,0.1,0.2,0.1c0,0.2,0,0.4,0,0.7c-2-0.6-3.8-0.6-5.9,0c-2,0.6-3.9,0.9-5.9,1
					c-0.4-0.1-0.7-0.1-1,0c-0.3,0-0.5,0-0.8,0c-0.5,0-0.9,0.3-0.9,0.8c0,0.1,0,0.2,0,0.3c0,0,0,0.1,0,0.1c0.3,0.7,0.7,1.3,1.1,2
					c0,0.7,0.4,1.3,1.2,1.8c0.3,0.3,0.5,0.6,0.7,0.8c2.7,2.9,7.3,4.3,11.2,3.1c0,0,0.1,0,0.2,0c0,0.2-0.1,0.3-0.1,0.5
					c-0.1,0.2-0.2,0.4-0.2,0.6c-0.5,0.9-1,1.7-1.6,2.5c0,0,0,0.1-0.1,0.1c-0.4,0.7-0.7,1.4-0.8,2.2c0,0.3,0,0.6,0,0.9
					c0.1,1.6,0.9,3.1,1.6,4.7c0,0,0,0,0,0c-0.1,0.3-0.1,0.5-0.2,0.8c-0.1,0.2-0.2,0.4-0.2,0.5c0,0,0,0.1,0,0.1
					c-0.1,0.2-0.2,0.5-0.3,0.6c-0.4,1-0.7,2.4,0.1,3.2c0.1,0.1,0.2,0.2,0.3,0.2c0.6,0.9,1.2,1.3,1.2,2.6c0,0.6,0.2,1.3,0.6,1.7
					c0.2,0.2,0.3,0.3,0.5,0.5c0.6,0,1,0.3,1.2,0.7c0,0,0.1,0,0.1,0.1c-0.2,0.4-0.3,0.9-0.4,1.4c-0.7,0.9-0.9,2.2-0.6,3.3
					c0.1,0.5,0.4,0.9,0.8,1.2c-0.4,0.8-0.5,1.8-0.2,2.6c-0.8,0.9-1.1,2-1,3.2c-0.1,0.2-0.2,0.3-0.3,0.5c0,0,0,0.1,0,0.1
					c-0.8,0.7-1.1,1.8-1,2.8c0.2,1,0.9,1.9,1.8,2.4c-0.1,0.8,0.2,1.6,0.7,2.2c0.2,0.2,0.4,0.4,0.6,0.5c-0.1,0.6-0.1,1.2,0.1,1.9
					c0.2,0.6,0.6,1.1,1.1,1.4c-1.3,1.6-1.5,4.4,0.6,5.5c1.3,0.7-0.3,2.4,0.9,3.3c0.5,0.4,0.9,0.8,1.4,1.2c-0.3,0.6-0.5,1.3-0.6,1.9
					c0,1.2,0.7,2.3,1.7,2.7c0,0.4,0.2,0.8,0.4,1.1c-0.1,1,0.1,2.1,0.9,2.8c0.4,0.4,0.8,0.5,1.2,0.4c0.5,0.2,1.1-0.1,1.4-0.4
					c0.1,0.2,0.1,0.4,0.2,0.7c0,0,0,0,0,0.1c-0.5,2,1.3,2.8,3.1,3c-0.1,0.4-0.3,0.9-0.3,1.4c-0.1,1.6,1,3,1.9,4.2
					c0.4,0.5,1,0.7,1.5,0.6c0,0.1,0,0.2-0.1,0.3c0,0.4,0,0.8,0,1.1c0,0.2,0,0.3,0,0.5c0.2,0.2,0.3,0.6,0.1,0.9
					c-0.1,0.1-0.1,0.2-0.1,0.3c0,0.3,0,0.6,0,1c0.6,1.1,1.3,2.1,2.1,3.1c0.1,0,0.2,0.1,0.3,0.1c0.8,0.2,1.6-0.5,2.3,0.3
					c0.6,0.7,0.6,1.5,0.3,2.4c0,0,0,0.1,0,0.1c0,0.1,0,0.2,0,0.3c0.1,0.1,0.3,0.3,0.4,0.4c0.1,0.1,0.2,0.2,0.3,0.3
					c0.9,0.3,2.3,0.2,2.8,0.2c0.1-0.1,0.3-0.2,0.4-0.2c0.2-0.1,0.3-0.1,0.5-0.1c0.2,0,0.3,0,0.5,0c0,0,0.1,0,0.1,0
					c0.1,0,0.2,0.1,0.3,0.1c0,0,0.1,0,0.1,0.1c0.1,0.1,0.2,0.1,0.2,0.2c0,0,0.1,0.1,0.1,0.1c0.1,0.1,0.2,0.2,0.2,0.3
					c0.1,0.1,0.2,0.3,0.2,0.4c0,0.1,0.1,0.1,0.1,0.2c0,0.1,0.1,0.2,0.1,0.2c0,0.1,0.1,0.2,0.1,0.3c0.1,0.3,0.1,0.7,0.2,1
					c0.1,0.1,0.2,0.2,0.4,0.3c0,0.2,0.1,0.3,0.1,0.5c0,0.1-0.1,0.4-0.2,0.6c0.4,0.5,0.7,1,1,1.5c0.1,0.1,0.1,0.2,0.2,0.3
					c0.3,0.2,0.5,0.5,0.8,0.7c0.1,0.1,0.2,0.1,0.3,0.3c0.1,0.1,0.3,0.2,0.4,0.3c0.9,0.5,1.8,0.9,2.7,1.3c0.1,0.1,0.1,0.3,0.1,0.4
					c0,0.6,0,1.1-0.1,1.7c0.1,0.1,0.2,0.1,0.3,0.2c0.7,0.5,1.4,1,2.1,1.4c0.4,0,0.8,0.1,1.2,0.1c0.6,0,1.1,0.2,1.6,0.5
					c0.1,0.1,0.3,0.2,0.4,0.3c0,0,0,0,0,0c0.1,0.1,0.1,0.1,0.2,0.2c0,0,0,0,0,0c0.2,0.5,0.3,1,0.4,1.5c-0.2,0.7-0.4,1.3-0.4,2
					c0,0.7,0.2,1.4,0.6,2.1c0.2-0.1,0.4,0,0.5,0.1c1.3,2.1,1.4,2,1.2,4.4c0,0.1,0,0.3,0,0.4c0,0,0,0,0,0c0,0.2,0,0.3-0.1,0.5
					c0,0.6,0,1.2,0,1.8c0,0.3,0.1,0.7,0.2,1c0,0,0,0,0,0c-0.1,0.2-0.2,0.4-0.2,0.6c0,1-0.1,2-0.2,3c-0.2,1.2-0.1,2.6-1.2,3.3
					c-0.5,0.3-1,0.6-1.6,0.9c-0.1,0.1-0.1,0.1-0.2,0.2c-0.7,0.7-1.1,1.4-1.6,2.3c-0.5,1.1-1,2.3-1.5,3.5h24.6c0,0,0,0,0,0
					c-0.4,0-0.8,0-1.1-0.1c-0.1,0-0.2,0-0.4,0l0,0c0,0-0.1-0.1-0.1-0.1c-0.5,0-1,0-1.5-0.1c-0.3,0-0.6,0-0.8,0c0-0.2,0-0.5-0.1-0.7
					c0,0,0,0,0,0c0-0.2,0-0.4,0-0.6c0.2-0.1,0.4,0,0.5,0.2c0,0,0,0,0,0c-0.2-0.2-0.3-0.5-0.1-0.8c0.2-0.4,0.4-0.8,0.7-1.3
					c0.2-0.4,0.4-0.8,0.6-1.2c0.6-1.2,1.4-2.4,2.4-3.1c1-1.3,1.9-2.3,2.5-3.9c0.6-1.7,0.6-3.8,0.7-5.6c0.1-1.5,0-3-0.1-4.4
					c0-0.1,0-0.1-0.1-0.2c-0.4-1.2-1-2.2-1.3-3.5c-0.3-1.6-0.2-3.3-0.1-5c-0.1-0.9-0.2-1.8-0.3-2.7c0,0-0.1,0-0.1-0.1
					c-0.1-0.3-0.2-0.6-0.2-0.9c-0.1-0.3-0.1-0.5-0.2-0.8c0,0,0,0,0-0.1c0-0.1-0.1-0.2-0.1-0.3c0,0,0,0,0,0h0c0,0,0,0,0,0
					c0-0.1,0.1-0.2,0.2-0.2c-0.1-0.1-0.1-0.3-0.2-0.5c-0.3-0.8-0.8-1.5-1.6-2.2c0,0-0.1-0.1-0.1-0.1c-0.2,0-0.3,0-0.5,0.1
					c-0.2,0-0.4,0.2-0.7,0.1c0,0-0.1,0-0.1,0c-0.2,0-0.3-0.2-0.3-0.4c0-0.1,0-0.1,0-0.2c-0.1,0-0.1-0.1-0.2-0.1
					c-0.2-0.2-0.3-0.4-0.5-0.6c-0.1,0.1-0.3-0.1-0.2-0.3c-0.1-0.1-0.2-0.3-0.4-0.4c-0.1-0.1-0.1-0.1-0.2-0.2c0,0,0,0,0,0
					c-0.5,0.2-0.8-0.3-0.6-0.7c-0.3,0.1-0.6,0.2-0.8,0.2c-0.3,0-0.7-0.4-0.4-0.7c0.1-0.1,0.2-0.2,0.4-0.3c-0.1-0.1-0.2-0.1-0.3-0.2
					c-0.3,0.3-0.7,0.4-1.1,0.4c-0.1,0-0.2,0-0.2,0c-0.3-0.1-0.6-0.4-0.6-0.8c0-0.1,0-0.2-0.1-0.4c-0.1-0.1-0.1-0.3-0.1-0.4
					c-0.1-0.3-0.1-0.7-0.1-1c0-0.1-0.1-0.1-0.1-0.2c0,0,0,0-0.1,0.1l0,0c0,0,0,0.1-0.1,0.1c-0.3,0.4-0.9-0.2-0.6-0.6
					c0,0,0,0,0.1-0.1c-0.1,0-0.2,0-0.2,0c-0.1,0-0.1-0.1-0.2-0.1c-0.5,0.3-1.2-0.2-1-0.9c0.1-0.2,0.1-0.5,0.2-0.7
					c0.1-0.2,0.1-0.4,0.2-0.7c0-0.2,0.1-0.4,0.1-0.6c-0.2-0.2-0.4-0.5-0.6-0.6c-0.1,0.2-0.2,0.4-0.4,0.6c-0.2,0.2-0.4,0.4-0.6,0.5
					c-0.1,0.1-0.2,0.1-0.4,0.1c0.1,0,0.1,0,0,0c-0.2,0-0.4,0-0.5-0.1c0,0,0,0,0,0c-0.2-0.1-0.3-0.3-0.2-0.5c0-0.1,0-0.3,0.1-0.3
					c0,0,0,0,0.1-0.1c0,0.1,0,0,0.1-0.1c0.1-0.1,0.2-0.2,0.2-0.2c0,0,0,0,0,0c-0.3,0.1-0.6-0.1-0.5-0.4c0-0.2,0.1-0.4,0.1-0.5
					c0-0.1-0.1-0.1-0.2-0.2c-0.5,0.2-1.1,0.2-1.4-0.2c-0.1-0.1,0-0.2,0.1-0.3c0.3-0.1,0.6-0.1,0.8-0.1c-0.1-0.1-0.2-0.2-0.3-0.3
					c-0.8,0.1-1.5-0.1-2.1-0.6c-0.1-0.1,0-0.3,0.2-0.3c0.5,0,1,0.2,1.4,0.2c0-0.1,0-0.3,0.1-0.4c-0.2,0.1-0.4,0-0.5,0
					c-0.1,0-0.2-0.2-0.1-0.3c0.1-0.1,0.1-0.2,0.2-0.3c0,0,0,0,0,0c0.1-0.5,0.3-1,0.6-1.4c0.2-0.3,0.3-0.6,0.5-0.8
					c-0.1-0.2-0.1-0.4-0.1-0.6c0-0.2,0.1-0.5,0.1-0.7c0-0.2,0-0.4,0.1-0.7c0,0,0,0,0,0c-0.5,0.5-1.2,1-1.9,0.8c-0.1,0-0.1-0.2,0-0.3
					c0.1-0.1,0.1-0.1,0.2-0.1c-0.1-0.1-0.1-0.2-0.1-0.3c-0.1-0.9,0-1.2,0.2-2.2c0.3-1.4,0-2.8-0.5-4.1c-0.8-2.2-2.9-3.9-4.3-5.7
					c-0.7-0.9-1.4-1.8-2-2.7c-0.1-0.1-0.2-0.3-0.3-0.5c-1.3-2-2.3-4.2-2.7-6.5c-0.4,0-0.8-0.2-0.9-0.6c-0.1-1.6-0.4-3.1-0.9-4.6
					c-0.3-0.7-0.8-1.2-1.2-1.8c-0.2-0.3-0.2-0.6-0.2-0.8c-0.1-0.1-0.1-0.1-0.2-0.2c0,0-0.1,0-0.2,0.1c0,0,0,0,0,0
					c-0.4,0.5-1,0.3-1.3-0.1c0,0-0.1,0-0.1-0.1c-0.4-0.4-0.6-1-0.9-1.6c0,0,0,0,0,0c-0.1,0.5-0.4,0.9-0.8,0.8
					c-0.2,0-0.3-0.3-0.4-0.6c-0.1,0-0.1,0-0.2,0c-0.1-0.1-0.2-0.1-0.3-0.2c0,0.2,0,0.5,0,0.8c0,0,0,0,0,0c0,0.1,0,0.2,0,0.3
					c0,0,0,0,0,0c0,0.1-0.1,0.2-0.1,0.3c0.1,0.1,0.1,0.2,0.2,0.4c0,0.1-0.1,0.2-0.1,0.1c0,0,0,0,0,0c0.2,0.8,0.3,1.6,0.3,2.4
					c0,0.2-0.3,0.2-0.4,0.1c-0.2-0.3-0.3-0.7-0.3-1.1c0,0.1,0,0.3-0.1,0.4c0,0.1-0.1,0.1-0.1,0c0,0,0,0,0,0c0.1,0.9,0,1.8-0.4,2.7
					c-0.4,1-1.4,2.4-2.6,2.7c-0.3,0.2-0.6,0.4-0.9,0.4c-0.1,0.3-0.3,0.6-0.6,0.8c-0.2,0.2-0.5,0-0.4-0.2c0.1-0.4,0.1-0.8,0.2-1.2
					c-0.7-0.9-0.4-2.1-0.5-3.2c-0.1-1-0.4-1.9-0.7-2.7c-0.1-0.3-0.2-0.5-0.3-0.8c0,0,0-0.1,0-0.1c-0.4-0.3-0.7-0.7-0.9-1.2
					c-2.4,0.4-6.5,1-6.4-1.8c-1-0.4-1.5-1.2-1.6-2.3c0,0,0-0.1,0-0.1c-0.2-0.6-0.3-1.5,0-2.2c-0.2-1.1,0.4-2.3,1.1-3.4
					c1-2.9,2.6-5.6,4.8-7.8c-1.6-0.4-3.1-1-4.3-2c-1.3-0.8-2.8-1.9-3.1-3.3c-0.1-0.1-0.2-0.3-0.3-0.4c-0.2-0.3,0.2-0.8,0.5-0.8
					c0.1,0,0.2,0,0.2,0c0,0,0,0,0.1,0c1.8,0.2,3.4-0.4,5.2-0.6c1.8-0.3,3.5,0.4,5.3,0.2l0,0c0.1-0.1,0.3-0.2,0.5-0.3
					c0-0.1,0-0.1,0-0.2c0-0.1,0.1-0.3,0.3-0.3c0.1,0,0.2,0,0.2,0c0,0,0,0,0,0c0,0,0-0.1-0.1-0.1c-0.2-0.3,0.1-0.6,0.4-0.6
					c0.2,0,0.4,0.1,0.6,0.1c0-0.3,0.3-0.6,0.6-0.5c0.1,0,0.2,0.1,0.3,0.1c0.2-0.1,0.3-0.3,0.5-0.4c0,0,0,0,0,0
					c2.5-2.7,5.1-5.2,7.5-8c0.1-0.1,0.2-0.3,0.2-0.5c0,0,0-0.1,0-0.1c0.1-0.5-0.1-1-0.6-1.2c0-0.1-0.1-0.2-0.1-0.2
					c0.1-0.4,0.4-0.7,0.8-0.9c0,0,0.1,0,0.1-0.1c0,0,0,0,0,0c1.5-0.7,2.9,0,3.6,1.4c0.4,0.8,0.3,1.7,0.3,2.6c0,0.3,0,0.6-0.1,1
					c1.2-0.4,2.5-0.7,3.7-0.9c2.9-0.4,6.1-0.5,8.9,0.3c1.4,0.4,3.6,1.4,4.4,2.9c0,0,0,0,0.1,0c0.3,0.1,0.3,0.5,0.1,0.6
					c0,0.1-0.1,0.3-0.3,0.3c0,0.1,0,0.1-0.1,0.2c0,0-0.1,0-0.1,0.1c-0.1,0-0.2,0-0.2,0c-5.6-2.5-11.8,0.6-16,4.5c0,0,0,0,0,0
					c-0.2,0.3-0.2,0.8,0.3,0.9c0.8,0.2,1.4,0.6,2.1,1c0,0,0,0,0,0c0,0.2-0.1,0.4-0.2,0.4c0,0,0,0,0,0c0,0,0,0,0,0
					c0.2,0.1,0.2,0.3,0,0.3c0,0,0,0,0,0c0.3,0.2,0.7,0.5,1,0.7c0.2,0.2,0.4,0.5,0.6,0.7c0.3,0.4,0.6,0.9,0.6,1.4
					c0.5,0.6,0.8,1.3,1.2,1.9c0.5,0.8,1,1.7,1.3,2.6c0,0,0,0,0,0c0.1,0.1,0.1,0.3,0.1,0.4c0,0.1-0.1,0.2-0.2,0.3c0,0,0,0,0,0
					c0.1,0.1,0.2,0.3,0.4,0.4c0.2,0.2,0.4,0.3,0.6,0.4c0.3,0.2,0.8,0.5,0.5,0.9c0,0,0,0,0,0c0.1,0,0.1,0.1,0.2,0.1
					c0.5,0.3,1,0.7,1.2,1.3c0,0,0,0.1,0,0.1c0,0,0,0,0,0.1c0,0,0,0,0,0.1c1,0.9,1.6,2.2,2.3,3.4c0.3,0.3,0.5,0.7,0.8,1
					c0,0.1,0.1,0.1,0.1,0.2c0.1,0.2,0.2,0.4,0.3,0.6c0.4,0.4,0.7,0.8,1.2,1.1c0.1,0,0.2,0,0.2,0.1c0.1,0.1,0.2,0.3,0.3,0.4
					c0.4,0.3,0.8,0.5,1.2,0.8c0.4,0.2,0.7,0.4,1,0.7c1.2,0,2.7,1,3.9,1.2c1.6,0.3,3.1,0.3,4.5,1c2,0,4,0.1,6,0.2
					c0.3,0,0.5-0.1,0.8-0.1c0.1,0,0.2,0.1,0.3,0.1c1.6,0,3.2-0.3,4.9,0.1c1.6,0.3,2.9,0.4,4.3,1.3c0.1,0.1,0.2,0.2,0.1,0.3
					c0,0.1,0,0.2,0,0.2c0.3-0.2,0.6-0.2,1-0.2c0.2-0.1,0.5-0.2,0.7-0.2c0.2,0,0.3,0.2,0.2,0.3c0,0,0,0,0,0.1
					c0.2,0.1,0.4,0.2,0.6,0.3c0.2,0.1,0.1,0.3,0,0.5c3.3-0.1,6.6-0.7,9.9-0.7c0.8-0.1,1.6-0.1,2.4-0.1c0.2,0,0.4-0.1,0.6-0.1
					c0-0.1,0.2-0.3,0.3-0.4c0.7-0.3,2-0.5,2.7,0c0.1,0,0.2-0.1,0.3-0.1c0.3-0.1,0.5,0.1,0.4,0.3c0.2,0,0.3,0,0.5-0.1
					c1-0.3,2.2-0.2,3.3-0.3c1.3-0.2,2.4-0.7,3.7-0.6c0.1,0,0.1,0.1,0.1,0.2c-0.1,0.1-0.1,0.1-0.2,0.2c0.1,0,0.2,0,0.3-0.1
					c0.2-0.1,0.4-0.1,0.5-0.2c0-0.2,0.1-0.4,0.2-0.5c0.3-0.3,0.8-0.4,1.3-0.6c0.4-0.1,0.9-0.3,1.4-0.3c0.5,0,0.7,0.3,0.8,0.6
					c0.3-0.1,0.5-0.2,0.8-0.4c0.3-0.2,0.6,0,0.8,0.2c2.1-0.5,4.7-0.1,6.8,0.2c2.7,0.4,5.4,1.2,7.9,2.2c1.4,0.6,2.7,1.4,4.3,1.6
					c1.5,0.2,3.4-0.8,4.7-1.6c2.3-1.4,4-3.7,4.9-6.1c0.1-0.3,0.5-0.3,0.7-0.2c0.3-0.2,0.7-0.1,0.8,0.2c0.1,0.2,0.2,0.5,0.4,0.8
					c0.2,0,0.3,0.1,0.4,0.3c0.4-0.3,0.9-0.1,1.1,0.4c0.2,0.9,0.4,1.8,0.5,2.7c0,0,0,0,0,0c0.1,0,0.2,0,0.2,0.1
					c0.1,0.3,0,0.6-0.1,0.9c0,0,0,0.1,0,0.1c0.5,0.1,1,0.3,1.3,0.7c0.6,0.1,1.1,0.2,1.7,0.4c0.3,0.1,0.5,0.2,0.6,0.4
					c0.1,0,0.1,0,0.2,0.1c0.1,0,0.1,0.2,0,0.2c0,0,0,0,0,0c0.1,0.3,0,0.7-0.1,1c0,0,0,0.1,0,0.1c0,0,0,0,0,0
					c-0.2,0.3-0.6,0.6-1.1,0.6c-0.1,0-0.2,0-0.3,0c0,0,0,0,0,0c0.5,0.3,1,0.7,1.5,1.1c0.3,0.2,0.1,0.6-0.3,0.5
					c-0.2-0.1-0.4-0.1-0.7-0.2c0,0.1,0,0.2,0.1,0.2c0.7,0.8,1.2,1.8,1.6,2.8c0.1,0.3-0.1,0.6-0.4,0.6c-0.3,0-0.4-0.1-0.6-0.3
					c-0.1-0.2-0.3-0.3-0.5-0.5c0,0.2,0,0.4,0,0.6c0,0.1,0,0.2,0,0.3c0.2,0.5,0.3,0.8,0,1.3c-0.1,0.1-0.2,0.1-0.3,0.1
					c-0.2,0.3-0.3,0.6-0.5,0.9c-0.2,0.2-0.4,0.3-0.6,0.3c0,0.1,0,0.1,0,0.2c-0.1,0.4-0.3,0.6-0.6,0.7l-0.1,0
					c-0.2,0.1-0.4-0.1-0.6-0.2c0,0,0-0.1-0.1-0.1c-0.2-0.2-0.2-0.5-0.1-0.7c-0.1-0.3-0.1-0.6-0.1-0.9c-0.2,0.2-0.4,0.4-0.7,0.6
					c0,0.1,0,0.2,0,0.3c-0.1,0.4-0.3,0.7-0.5,1c-0.2,0.3-0.4,0.5-0.6,0.8c-0.1,0.1-0.2,0.3-0.4,0.4c0,0-0.1,0.1-0.2,0
					c-0.2,0.1-0.4,0.2-0.5,0.3c-0.2,0.1-0.3,0.1-0.5,0.1c0,0.1,0,0.1,0,0.2c0.1,0.2,0.2,0.4,0.3,0.6c0.5,1.1,1.2,2.7,0.5,3.8
					c-0.1,0.2-0.5,0.2-0.6,0c-0.2-0.3-0.3-0.6-0.4-0.9c0,0,0,0,0,0c0.1,0.7,0.3,1.4,0.4,2.1c0,0.1,0,0.2,0,0.2c0,0,0,0,0,0
					c0,0.1,0,0.1,0,0.1c-0.1,0.4-0.5,0.5-0.8,0.5c0,1-0.1,2.1-0.1,3.1c0,0.5-0.4,0.7-0.8,0.7c0,0.1,0,0.2,0,0.3
					c0.6,1.6,0.5,3.4,1.2,5c0.4,1.1,0.6,2,0.2,2.9c0.2,1.2,0,2.5-0.6,3.5c-0.2,0.3-0.5,0.1-0.5-0.2c0,0,0-0.1,0-0.1
					c0,0.1-0.1,0.3-0.1,0.4c-0.1,0.2-0.3,0.1-0.4,0c-0.1-0.4-0.1-0.7-0.1-1.1c0,0.1-0.1,0.1-0.1,0.2c0.1,1.3-0.1,2.5-0.6,4
					c-0.2,0.4-0.5,0.6-0.9,0.5c-0.3,0.6-0.6,1.3-0.9,1.9c-0.1,0.6-0.3,1.1-0.5,1.5c-0.4,1.3-0.8,2.8-1.4,3.9c0.6,1.5,0.4,3.5,1,5.1
					c0.3,0.9,1.1,1.8,1.5,2.8c0.6-0.3,1.3-0.7,2-0.8c0.1,0,0.1,0,0.2,0.1c0.4,0.1,0.9,0.2,1.3,0.1c0.3,0.1,0.5,0.4,0.7,0.7
					c0.5,0.7,0.6,1.4,0.4,2.1c0.6,0.2,1.3,0.3,2,0.3c0.1,0,0.1,0,0.2,0c0.2,0.6-0.5,4-0.5,4.7c0,1,0,1.9,0.3,2.9
					c0.5,1.8,2,2,3.2,2.9c0.1,0,0,0.3-0.2,0.8c0,0,0,0,0,0c-0.5,1.2-1.1,2.6-0.9,3.6c0,0.2,0.1,0.4,0.2,0.7
					c-0.2,0.3-0.3,0.5-0.4,0.8c-0.5,1.9-1.4,5.1,0.1,6.6c0,0.2-0.1,0.5-0.2,0.7c0,0.1,0,0.1,0,0.2c-0.2,0.6-1.1,0.9-1.6,1
					c-0.2,0-0.4,0.1-0.5,0.1c0,0.1-0.1,0.1-0.1,0.2c-1.7-0.3-2.8,1.5-3.6,2.8c-0.1,0.2-0.2,0.3-0.3,0.5h24c0.1-0.2,0.2-0.4,0.3-0.7
					c0.3-2,0.7-4.2,1.3-6.1c0.4-1.3,0.9-2.5,0.9-3.9c0-1.7-0.8-3.3-0.6-5c0.2-1.3,0.7-2.3,1.1-3.4c0.6-0.3,0.9-0.6,1.7-0.3
					c0.5,0.2,1,0.6,1.6,0.6c1.2,0,2.1-0.4,2.7-1.5c0.4-0.8,0.4-1.8,0.8-2.6c0.4-0.7,1.2-1.1,1.7-1.6c0.8-0.7,0.8-1.3,0.7-2
					c0.1-0.6,0.1-1.3-0.1-2c0.1-0.3,0.1-0.6,0.2-1c2.7-1.5,3-5.9,1.2-8.2c0-0.1-0.1-0.1-0.2-0.2c0.5-1.8-0.7-4.4-1.6-6.4
					c0.4-1.8-0.3-4.2-0.8-5.8c-0.2-0.5-0.4-1.1-0.5-1.6c0.2-0.9,0.1-1.8-0.2-2.6c0-0.1,0-0.1,0-0.2c0-0.1,0.1-0.1,0.1-0.2
					c0-0.2,0.1-0.3,0.1-0.5c0.1-0.3,0.3-0.6,0.4-0.8c0.7-1.6,0.9-3.1,0.6-4.7c0.8-0.6,1.5-1.6,2-2.4c0.1,0,0.2-0.1,0.2-0.1
					c5.9-4.8,3-3.3,3.1-9.1c0-0.2,0.1-0.3,0.1-0.5c0.2-0.2,0.3-0.4,0.4-0.6c0.1-0.1,0.2-0.2,0.2-0.4c0.3-0.7,0.4-1.7,0.2-2.6
					c0-0.4-0.1-0.9-0.1-1.3c0,0,0,0,0,0C270.2,70.8,270.2,70.6,270.3,70.4z M89.1,24.8c-0.4,0.8-0.7,1.5-1,2.2
					c-0.1,0.1-0.2,0.2-0.3,0.3c0-0.1,0-0.1,0-0.2C88.1,26.4,88.6,25.5,89.1,24.8C89.1,24.8,89.1,24.8,89.1,24.8z M236.4,138.9
					c0-0.4,0-0.7,0.1-1.1c0.1,0.5,0.2,0.9,0.3,1.4C236.6,139.2,236.4,139.2,236.4,138.9z"/>
				<path class="st0" d="M197.9,110C197.9,110,197.9,110.1,197.9,110c0,0.1-0.1,0.2-0.1,0.3c0.1-0.1,0.2-0.2,0.3-0.3
					c0,0,0-0.1,0-0.1C198.1,109.9,198,110,197.9,110z"/>
				<path class="st0" d="M182.7,112.4c0.2,0,0.4-0.1,0.6-0.1c-0.2,0-0.4-0.1-0.6-0.1C182.8,112.3,182.8,112.3,182.7,112.4z"/>
				<path class="st0" d="M197.7,122.2c0.9-1,0.8-2.6,1.4-3.9c-0.5-0.2-0.9-0.5-1.4-0.8c-1.1-0.4-2.1-1.1-2.9-2
					c-0.1-0.1-0.2-0.3-0.3-0.4c-0.1-0.1-0.1-0.2-0.2-0.2c-0.1-0.2-0.2-0.3-0.3-0.5c0,0,0-0.1,0-0.1c0,0,0,0,0,0
					c-0.2-0.2-0.4-0.4-0.6-0.6c-0.5-0.3-1-0.4-1.6-0.4c-0.2,0.1-0.4,0.1-0.6,0.3c-0.5,0.3-0.9,0.9-1.5,0.9c-0.1,0-0.2-0.1-0.3-0.2
					c0-0.1,0-0.1-0.1-0.2c-0.3-0.1-0.4-0.6,0-0.8c0.1-0.1,0.2-0.1,0.3-0.2c0-0.1,0.1-0.1,0.2-0.2c-0.3,0.2-0.7,0.3-1,0.4
					c-0.2,0.1-0.3,0.2-0.5,0.3c-0.7,0.4-1.6,0.6-2.2,0.1c-0.4-0.1-0.8-0.3-1.1-0.5c-1.2,0.5-2.5,0.7-3.8,0.8
					c-0.7,0.1-1.2-0.9-0.8-1.4c-4.1,0-8.2-1.4-11.6-3.7c0,0.1-0.1,0.1-0.1,0.2c0,0.6-0.2,1.3-0.3,1.9c0.6,1.3,1.4,3.2,0.7,4.5
					c-0.2,0.3-0.5,0.3-0.7,0c-0.2-0.3-0.3-0.6-0.4-0.9c0,0,0-0.1-0.1-0.1c0,0,0,0.1,0,0.1c0,0.2,0,0.3-0.1,0.5
					c0.3,0.4,0.4,0.8,0.5,1.2c0.1,0.5,0.4,1.3-0.1,1.7c-0.1,0.1-0.2,0.1-0.3,0c-0.4-0.3-0.3-0.9-0.4-1.3c0-0.1,0-0.2,0-0.2
					c0,0.1,0,0.1,0,0.2c0,0,0,0.1,0.1,0.2c0.1,0.2,0.1,0.5,0,0.8c0,0,0,0,0,0c0,0.7-0.1,1.3-0.5,2c0,0.2,0,0.5,0,0.7
					c0.9,0,1.7-0.2,2.6-0.5c0.4,0.5,0.8,0.9,1.4,1.2c0.3,0,0.5,0.1,0.8,0.1c1.4,0.2,2.5-0.8,3.9-0.9c0.2,0,0.2,0.2,0.2,0.4
					c0,0.2,0,0.3,0,0.5c1.2,0.6,2.6,0.7,4,0.7c0,0,0,0.1,0,0.1c0.1-0.1,0.2-0.3,0.2-0.4c0.1-0.2,0.4-0.6,0.7-0.6
					c0.4,0,0.2,0.6,0.1,0.8c-0.2,0.6,0,0.9,0.5,1.2c0.3,0.2,0.6,0.4,0.8,0.7c1-0.3,1.9-0.5,2.9-0.7c0.4-0.4,0.8-0.8,1.3-1.2
					c0,0,0.1-0.1,0.1-0.1c0.2-0.3,0.6-0.7,0.7-0.3c0.8-0.2,1.6,0.1,1.9,1c1-0.3,2.1-0.4,3.1-0.6c0.1,0,0.1,0,0.2,0.1
					c0.3,0.8,0.7,1.7,0.8,2.6c1,0.1,2,0.1,3.1-0.1C196.5,123.5,197.1,122.9,197.7,122.2z"/>
				<path class="st0" d="M112.2,37.6C112.2,37.6,112.2,37.6,112.2,37.6L112.2,37.6c-0.1,0.1-0.1,0.1-0.1,0.1
					C112.1,37.7,112.2,37.6,112.2,37.6z"/>
				<path class="st0" d="M104.9,41.5c-0.3-0.2-0.6-0.3-0.9-0.5c0.1,0.1,0.2,0.1,0.3,0.2C104.5,41.3,104.7,41.4,104.9,41.5z"/>
				<path class="st0" d="M112.6,36.9c0-0.1,0.1-0.1,0.1-0.2c-0.1,0-0.3,0-0.4,0C112.5,36.7,112.6,36.8,112.6,36.9z"/>
				<path class="st0" d="M105.1,50.4c0.2-0.4,0.4-0.8,0.7-1.2c-0.3,0.4-0.6,0.8-0.8,1.2c0,0.1-0.1,0.2-0.1,0.3
					C104.9,50.5,105,50.4,105.1,50.4z"/>
				<path class="st0" d="M113.1,36.6C113.1,36.6,113.1,36.5,113.1,36.6c0-0.1,0-0.1-0.1-0.1c0,0,0,0.1,0,0.1
					C113,36.6,113,36.6,113.1,36.6z"/>
				<path class="st0" d="M101.8,38.8C101.7,38.8,101.7,38.8,101.8,38.8C101.7,38.9,101.7,38.9,101.8,38.8
					C101.8,38.9,101.8,38.9,101.8,38.8z"/>
				<path class="st0" d="M148.7,109.5C148.7,109.5,148.7,109.5,148.7,109.5C148.7,109.5,148.6,109.5,148.7,109.5
					C148.7,109.5,148.7,109.5,148.7,109.5z"/>
				<path class="st0" d="M236.6,70.3c0.1,0.1,0.1,0.1,0.2,0.2c-0.1-0.1-0.1-0.2-0.2-0.3C236.6,70.2,236.7,70.3,236.6,70.3z"/>
				<path class="st0" d="M230.3,60.5c0,0,0,0.1,0,0.1C230.3,60.6,230.3,60.6,230.3,60.5C230.3,60.5,230.3,60.5,230.3,60.5z"/>
				<path class="st0" d="M228.7,96.6C228.7,96.6,228.7,96.6,228.7,96.6c-0.1,0.1-0.1,0.2-0.2,0.3c0.1,0.2,0.1,0.4,0.1,0.7
					C228.7,97.2,228.7,96.9,228.7,96.6z"/>
				<path class="st0" d="M137.7,94.6c0.1,0,0.2,0,0.3,0c0,0,0.1-0.1,0.1-0.1c0,0,0-0.1,0-0.1c-0.1,0-0.2-0.1-0.2-0.1
					C137.8,94.3,137.8,94.5,137.7,94.6z"/>
				<path class="st0" d="M125,25.2C124.9,25.1,124.9,25.1,125,25.2C124.9,25.1,124.9,25.1,125,25.2C124.9,25.2,124.9,25.2,125,25.2z
					"/>
				<path class="st0" d="M116.8,63.8c0-0.1,0-0.2-0.1-0.4c0,0,0,0.1,0,0.1C116.7,63.6,116.7,63.7,116.8,63.8z"/>
			</g>
		</g>
	</g>
	<g>
		<g>
			<g>
				<path class="st1" d="M302.3,246.1c4.7-1.1,9.5-2.1,14.3-3c-32,23.7-75.7,38.9-124.2,40.3c4.2-2,8.4-3.9,12.6-5.7
					c15.7-6.8,31.6-12.9,47.9-18.1C269.1,254.3,285.6,249.8,302.3,246.1z"/>
			</g>
			<g>
				<path class="st1" d="M318.5,203.3c12.2-1.3,24.5-2.2,36.7-2.4c-6.9,11.8-16.1,22.8-27,32.7c-9.2,1.3-18.4,2.9-27.6,4.8
					c-17,3.5-33.8,8-50.3,13.3c-25.6,8.5-50.7,18.9-74.5,31.8c-22-0.8-43-4.4-62.4-10.3c3.8-2.3,7.6-4.6,11.4-6.8
					c14.9-8.4,30.2-16.1,45.9-22.8c15.7-6.8,31.6-12.9,47.9-18.1c16.2-5.3,32.7-9.8,49.4-13.5C284.7,208.1,301.6,205.3,318.5,203.3z
					"/>
			</g>
			<path class="st2" d="M94.1,230.5C83.9,236.8,74,243.6,64.5,251c-29.9-18.8-51.6-44.4-60.7-73.5c7.6,2.6,15,5.3,22.4,8.3
				c15.9,6.3,31.5,13.2,46.7,21c10.7,5.4,21.3,11.2,31.6,17.5C101.1,226.3,97.6,228.3,94.1,230.5z"/>
			<path class="st2" d="M76.8,199.3C52.6,187.1,27.5,176.8,1.6,169c-0.7-3-1.2-6.1-1.6-9.2h60.8c2.8,1,5.7,2.1,8.4,3.3
				c15.9,6.3,31.5,13.2,46.7,21c11.1,5.7,22,11.7,32.7,18.2c-12.2,5.2-24.2,11-35.9,17.4C101,212.4,89,205.6,76.8,199.3z"/>
			<path class="st2" d="M119.7,176.7c-12.1-6.1-24.5-11.7-37-16.8h54.1c6.4,2.9,12.7,6,19,9.2c11.1,5.6,22,11.7,32.6,18.1
				c-10.3,3.4-20.5,7.2-30.6,11.2C145.4,190.6,132.7,183.4,119.7,176.7z"/>
			<g>
				<path class="st1" d="M342.3,170.8c8.3,0.2,16.5,0.8,24.7,1.8c-2.1,8.1-5.1,15.9-9.1,23.4c-13.3-0.6-26.7-0.4-40,0.7
					c-17.3,1.2-34.5,3.9-51.5,7.3c-17,3.5-33.8,8-50.3,13.3c-32.9,10.9-64.9,25-94.5,43.3c-5.2,3.2-10.3,6.6-15.3,10.1
					c-13.2-4.6-25.6-10.2-37-16.9c9.1-6.4,18.6-12.2,28.3-17.8c14.9-8.4,30.2-16.1,45.9-22.8c15.7-6.8,31.6-12.9,47.9-18.1
					c16.2-5.3,32.7-9.8,49.4-13.5c16.7-3.8,33.5-6.6,50.5-8.6C308.1,171.2,325.2,170.3,342.3,170.8z"/>
			</g>
			<path class="st2" d="M207.6,159.9c9.2,4.7,18.1,9.7,27,14.9c-12,2.6-24,5.7-35.8,9.2c-12.7-8.1-25.8-15.5-39.1-22.5
				c-1.2-0.6-2.3-1.2-3.5-1.7H207.6z"/>
			<path class="st2" d="M369.5,159.9c-0.4,3.5-1.1,7-1.9,10.4c-8.3-1.7-16.7-2.8-25.1-3.6c-17.3-1.5-34.7-1.5-52-0.1
				c-15.8,1.1-45.5,5.8-44.8,5.5c-6.8-4.2-13.6-8.3-20.6-12.2H369.5z"/>
		</g>
	</g>
	<path class="st3" d="M108.6,125.2c0,0,0.1-1.5-1.8-4.3c-1.8,0.2-2.7-0.3-7.6,1.8c2.3-3.2,4.4-7.5,3.1-11.6c-2.3-0.3-4.3-1-7.8,1.3
		c-0.6-2.4-2.5-4.4-7.2-5.6c-2.3,2-5.1,4.4-5.1,11.6c-1.6-0.5-3.4,0.8-5.2,1.7c0.1-1.5-1.4-2.5-2.8-4.5c-1.3-0.5-2-1.1-8.6-1.1
		c3.2-0.5,6.5-3.1,8.2-6.6c-1.1-1.5-1.6-4.7-7.3-5.1c3.1-2.6,4.3-7.5,3.4-11.4c-3-1-5.8-2.2-10,0.4c0.2-2.8-0.7-6.5-3.3-8.8
		c-3.4,0.4-7.3,1.7-9.2,6.5c-1-2.7-3.4-4.5-8-4.3c-1.4,3-2.9,9.7-0.2,15.8c-2.1-0.8-5.2,0-7.7,1.4c-0.3,2.4-0.6,5.5,2.6,8.3
		c-1,0.6-1.1,2-1.1,2s0.3,1.9,0.8,4.4c-2-1.8-4.6-3-7.8-3.6c-0.5,0.7-2.5,2.4-2.2,6.6c-1.9-0.3-2.9-0.2-5.6,0.7
		c-0.6,2-0.5,5,2.6,8.6c-0.6,0.6-0.8,1.5-1,3.8c-0.9-1.2-3.9-1.5-3.9-1.5s-1,0.9-1.7,2.8c-0.4-2.6-4-7-7.3-8
		c-1.8,2.6-3.7,8.5,0.1,12.9c-1-0.2-3.8,0-6.1,0.7c0,2.6,0.8,7,4.3,8.2c23.9-5.1,79-9.3,100.4-6.6
		C106.4,132.4,108.6,125.2,108.6,125.2z M24.5,125.1c3-2.1,7.1-0.2,6.1,3.9C26.6,128.7,24.8,126.4,24.5,125.1z M41.1,125.3
		c-5.8-1.7-3.4-5.2-3.4-6.3C41.8,119.1,43.2,123.4,41.1,125.3z M44,112.3c-3.9-0.5-6-2.4-6.7-5.5C41.1,104.9,45.8,106.4,44,112.3z
		 M47.2,100.1c-3.1-1.6-6.1-3.4-5-7.5C46.5,92,49.6,95.6,47.2,100.1z M52.1,110.8c-1-4,1.5-6.8,4.3-6.5
		C57.7,107.4,56.2,110.5,52.1,110.8z M81.7,130.2c0.1-3.3,1.3-5.1,5.9-5C87.8,126.7,87.2,131,81.7,130.2z M88.1,121
		c-2.7-3.5-1.8-7.3-0.2-8.7C92,114.8,92.1,118.4,88.1,121z"/>
	<rect x="6.9" y="138.4" class="st3" width="98.5" height="9.4"/>
	<g>
		<g>
			<g>
				<path class="st2" d="M313.1,47.8h-17.6V9.5h16.8c8.5,0,13.3,4.2,13.3,9.9c0,4.7-3,7.6-7,8.8c4.6,0.8,7.9,4.8,7.9,9.3
					C326.6,43.5,321.6,47.8,313.1,47.8z M311.2,15.7h-7.5v9.6h7.5c3.9,0,6.1-1.6,6.1-4.8C317.3,17.5,315.1,15.7,311.2,15.7z
					 M311.8,31.2h-8.1v10.3h8.2c4,0,6.3-1.8,6.3-5C318.3,33.2,315.8,31.2,311.8,31.2z"/>
				<g>
					<path class="st1" d="M363.6,47.8h-8.2V44c-2,2.6-5.6,4.2-9.6,4.2c-7.5,0-13-4.6-13-13V24.9h8.2v9.2c0,4.9,2.9,7.5,7.2,7.5
						c4.4,0,7.2-2.6,7.2-7.5v-9.2h8.2V47.8z"/>
				</g>
				<path class="st2" d="M371.7,7.2h8.2v23.1l10.9-12.9h10.6l-14.3,15.3l14.4,15.1h-10.6l-11-13v13h-8.2V7.2z"/>
				<path class="st2" d="M404.9,12.5c0-2.5,2.1-4.5,5-4.5c2.9,0,5,2,5,4.5s-2.2,4.5-5,4.5C407,17,404.9,15,404.9,12.5z M405.8,20.6
					h8.2v27.2h-8.2V20.6z"/>
				<path class="st2" d="M423.3,23.7h-3.9v-6.3h3.9V9.9h8.2v7.5h7.2v6.3h-7.2v14.7c0,2,0.9,2.9,3.4,2.9h3.8v6.5h-5.1
					c-6.2,0-10.3-2.5-10.3-9.4V23.7z"/>
				<path class="st2" d="M313.6,100.7H296V62.4h16.8c8.5,0,13.3,4.2,13.3,9.9c0,4.7-3,7.6-7,8.8c4.6,0.8,7.9,4.8,7.9,9.3
					C327.1,96.4,322.1,100.7,313.6,100.7z M311.7,68.6h-7.5v9.6h7.5c3.9,0,6.1-1.6,6.1-4.8C317.8,70.3,315.6,68.6,311.7,68.6z
					 M312.3,84.1h-8.1v10.3h8.2c4,0,6.3-1.8,6.3-5C318.8,86.1,316.3,84.1,312.3,84.1z"/>
				<path class="st2" d="M332.7,66.5c0-2.5,2.1-4.5,5-4.5c2.9,0,5,2,5,4.5c0,2.5-2.2,4.5-5,4.5C334.8,71,332.7,69,332.7,66.5z
					 M333.6,74.6h8.2v26.1h-8.2V74.6z"/>
				<path class="st2" d="M362.5,69.8c5.2,0,8.8,2.3,10.7,4.8v-4.3h8.2v30.4h-8.2v-4.4c-1.9,2.6-5.6,4.9-10.7,4.9
					c-8.2,0-14.7-6.3-14.7-15.8S354.3,69.8,362.5,69.8z M364.6,76.5c-4.4,0-8.5,3.1-8.5,8.8s4.1,9.1,8.5,9.1c4.5,0,8.6-3.2,8.6-8.9
					S369.1,76.5,364.6,76.5z"/>
				<path class="st2" d="M389.4,60.1h8.2v23.1l10.9-12.9h10.6l-14.3,15.3l14.4,15.1h-10.6l-11-13v13h-8.2V60.1z"/>
				<g>
					<path class="st1" d="M332.9,17.9c0-2.5,2.1-4.5,5-4.5c2.9,0,5,2,5,4.5s-2.2,4.5-5,4.5C335,22.4,332.9,20.4,332.9,17.9z"/>
				</g>
				<g>
					<path class="st1" d="M354.4,17.9c0-2.5,2.1-4.5,5-4.5c2.9,0,5,2,5,4.5s-2.2,4.5-5,4.5C356.5,22.4,354.4,20.4,354.4,17.9z"/>
				</g>
			</g>
		</g>
		<text transform="matrix(1 0 0 1 295.2997 122.2745)"><tspan x="0" y="0" class="st0 st4 st5 st6">Peternakan</tspan><tspan x="0" y="19.3" class="st0 st4 st5 st6">Kambing &amp; Domba</tspan></text>
	</g>
</g>
</svg>
