<?xml version="1.0" encoding="utf-8"?>
<!-- Generator: Adobe Illustrator 21.0.0, SVG Export Plug-In . SVG Version: 6.00 Build 0)  -->
<svg version="1.1" id="Layer_1" xmlns="http://www.w3.org/2000/svg" xmlns:xlink="http://www.w3.org/1999/xlink" x="0px" y="0px"
	 viewBox="0 0 500 500" style="enable-background:new 0 0 500 500;" xml:space="preserve">
<style type="text/css">
	.st0{fill:#279220;}
</style>
<g>
	<path class="st0" d="M347,240.9c0-9.7-7.9-17.5-17.5-17.5s-17.5,7.9-17.5,17.5c0,9.7,7.9,17.5,17.5,17.5S347,250.6,347,240.9z"/>
	<path class="st0" d="M169.8,223.4c-9.7,0-17.5,7.9-17.5,17.5c0,9.7,7.9,17.5,17.5,17.5c9.7,0,17.5-7.9,17.5-17.5
		C187.3,231.3,179.5,223.4,169.8,223.4z"/>
	<path class="st0" d="M270.8,423.4c-2.1-1.8-4.7-2.6-7.5-2.4c-4.3,0.3-8.9,0.5-13.7,0.5c-4.8,0-9.4-0.2-13.7-0.5
		c-5.6-0.5-10.6,3.8-11,9.4c-0.5,5.6,3.8,10.6,9.4,11c4.8,0.4,10,0.6,15.3,0.6s10.5-0.2,15.3-0.6c5.6-0.5,9.8-5.4,9.4-11
		C274.2,427.6,272.9,425.1,270.8,423.4z"/>
	<path class="st0" d="M462.9,98.6c-13.1-27.8-31.6-47.5-54.9-58.4c-20.3-9.5-43.4-11.7-66.8-6.5c-40.8,9.2-75.1,39.2-84.2,73.5
		h-13.9C234,73,199.7,42.9,158.9,33.8c-23.4-5.3-46.6-3-66.8,6.5C68.7,51.1,50.3,70.8,37.1,98.6C8.5,159.2,13.8,223.5,19.5,256.4
		c8.2,47.5,25.9,85.8,43.8,95.3c10.7,5.6,21.1,6,29.6,1.3c18.8-10.5,21.5-42.4,21.7-46c0.3-4.8-2.8-9.3-7.5-10.6
		c-4.7-1.3-9.6,0.9-11.9,5.2c-1.8,3.5-4.1,6.3-5.6,7.8c-1.1-1.9-2.7-5.6-4.3-12.6c-6-26.2-5.2-59.7,2.2-89.7
		c0.4-1.6,0.8-3.2,1.2-4.8c4.4,8.9,10.5,16.6,18.1,22.5c6,4.7,12,7.6,16.5,9.3c1.5,41.9,13.9,128,14.5,131.7c0,0.1,0,0.2,0,0.2
		c2.6,15.8,6.8,35.9,16.8,51.6c10.3,16,25,25.4,45,28.5c10.3,15,27.5,22.9,49.9,22.9c22.4,0,39.6-7.9,49.9-22.9
		c18.2-2.9,31.9-10.7,42-24.1c9.6-12.7,15.7-30,19.9-56.1l0-0.2c0.5-3.7,12.9-89.6,14.5-131.5c4.6-1.7,10.9-4.6,17.1-9.5
		c7.5-5.9,13.7-13.6,18.1-22.5c0.4,1.6,0.8,3.2,1.2,4.8c7.4,30,8.2,63.5,2.2,89.7c-1.6,7.1-3.3,10.8-4.3,12.6
		c-1.5-1.5-3.8-4.3-5.6-7.8c-2.2-4.3-7.2-6.5-11.9-5.2c-4.7,1.3-7.8,5.7-7.5,10.6c0.2,3.6,2.9,35.5,21.7,46
		c8.5,4.7,18.9,4.4,29.6-1.3c18-9.5,35.6-47.8,43.8-95.3C486.2,223.5,491.5,159.2,462.9,98.6z M448.1,167.4c-2.2,1.6-3.6,4.1-4,6.8
		c-0.4,2.7,0.3,5.4,2,7.6c14,18.6,18.7,44.7,13.4,75.5c0,0.1,0,0.2-0.1,0.4c-8.8,46.2-25.4,72.2-32.3,75.9c-6.6,3.5-9.2,2-10,1.5
		c-1.4-0.8-2.8-2.2-4.1-4.2c0,0,0.1,0,0.1,0c13.6-1.7,18.8-17.7,21.5-29.5c6.7-29.2,5.8-66.2-2.3-99.1
		c-4.3-17.5-10.2-32.4-17.3-43.5c4.2,1.6,8.2,3.4,11.5,5.5c1.6,1,3.4,1.5,5.3,1.5c3.6,0,6.9-1.8,8.8-4.9c1.4-2.3,1.8-5.1,1.2-7.8
		s-2.3-4.9-4.6-6.3c-22.9-13.9-51.3-17-67.5-7.5c-4.6,2.3-9,5.9-13.3,10.7c2.8-20.2,9.2-41.4,17.2-56.6c1.3-2.4,1.5-5.2,0.7-7.8
		s-2.6-4.8-5-6c-2.4-1.3-5.2-1.5-7.8-0.7c-2.6,0.8-4.8,2.6-6,5c-13.9,26.5-20.6,61.2-21,83.7c-10.3,0.3-23.9-0.9-35.1-7.8
		c-22.4-13.8-24.1-33.5-24.2-35.1c0.1-14.7,7.3-30,20.4-43.2c13.4-13.5,31.2-23.3,50.1-27.5c12.2-2.7,24.5-3,36-0.7
		c-2.8,1.7-5.4,3.7-8,6.1c-2,1.8-3.2,4.4-3.3,7.1c-0.1,2.7,0.8,5.4,2.7,7.4c1.8,2,4.4,3.2,7.1,3.3c2.7,0.1,5.4-0.8,7.4-2.7
		c14.5-13.2,27.7-5.1,37.6,3.6c7.4,8.1,13.9,18,19.4,29.5c8.8,18.7,14.8,39.5,17.8,61.8C458.7,164.9,452.5,164.1,448.1,167.4z
		 M285.1,430.5c-0.6,0.8-1,1.6-1.4,2.5c-6.4,10.5-17.5,15.5-34,15.5s-27.6-5.1-34-15.5c-0.3-0.9-0.8-1.7-1.4-2.5
		c-2.4-4.7-3.9-10.5-4.7-17.3c10.9,3.3,24.4,5,40.1,5c15.7,0,29.1-1.7,40.1-5C289,419.9,287.4,425.7,285.1,430.5z M246.7,360.1
		c1.9,0,4,0,5.9,0c2,0,5.1,0,7.6,0.1c-2,3.7-6.4,8.4-10.5,8.4s-8.6-4.7-10.5-8.4C241.6,360.1,244.7,360.1,246.7,360.1z M259.9,397.4
		v-10.3c12.9-5.3,21.8-19.6,21.8-30c0-5.8-2.5-9.6-4.7-11.7c-5.9-5.9-15-5.9-24.5-5.8c-1.9,0-3.8,0-5.7,0c-9.6,0-18.6-0.1-24.5,5.8
		c-2.1,2.1-4.7,5.9-4.7,11.7c0,10.4,8.8,24.7,21.8,30v10.3c-13.3-0.8-23.8-3-31.5-6.7c-9.3-4.5-13.4-10.6-13.4-19.8
		c0-26.5,29.6-47.1,55.1-47.1c31,0,55.1,25.3,55.1,47.1c0,9.2-4.1,15.3-13.4,19.8C283.7,394.4,273.2,396.6,259.9,397.4z
		 M310.7,402.5c9.5-7.9,14.6-18.8,14.6-31.6c0-16.6-8.2-33.6-22.5-46.7c-14.7-13.5-33.6-20.9-53.1-20.9c-19.6,0-38.4,7.4-53.1,20.9
		c-14.3,13.1-22.5,30.1-22.5,46.7c0,12.8,5,23.7,14.6,31.6c0,0.3,0,0.7,0,1c0,6.7,0.6,13.1,1.7,18.9c-6.5-2.8-11.8-6.9-16.1-12.6
		c-7.3-9.8-12.5-24.7-16.1-46.9c-0.6-4.1-14.4-100.3-14.4-136.4c0-13.7,3.1-27.3,9-39.6c12,1.7,37.6,3.2,58.7-9.8
		c27.4-16.9,32.7-41,33.7-49.3h9.7c1,8.1,6.2,32.3,33.7,49.3c20.9,12.9,46.2,11.5,58.1,9.9c5.9,12.3,9,25.9,9,39.5
		c0,36-13.8,131.9-14.4,136.4c-3.6,22.3-8.7,37.2-16.1,46.9c-4.3,5.7-9.6,9.8-16.1,12.6c1.1-5.8,1.7-12.2,1.7-18.9
		C310.7,403.1,310.7,402.8,310.7,402.5z M65.4,301.3c2.7,11.9,7.9,27.8,21.5,29.5c0,0,0,0,0.1,0c-1.3,2-2.6,3.4-4,4.2
		c-0.9,0.5-3.5,1.9-10-1.5c-6.9-3.7-23.5-29.7-32.3-75.9c0-0.1,0-0.3,0-0.4c-5.3-30.8-0.7-56.9,13.4-75.5c3.4-4.5,2.5-11-2-14.4
		c-4.4-3.3-10.7-2.5-14.1,1.7c3-22.3,9-43,17.8-61.8c5.4-11.5,12-21.4,19.4-29.5c9.9-8.6,23.1-16.8,37.6-3.6c2,1.8,4.7,2.8,7.4,2.7
		c2.7-0.1,5.3-1.3,7.1-3.3c1.8-2,2.8-4.6,2.7-7.4c-0.1-2.7-1.3-5.3-3.3-7.1c-2.6-2.4-5.3-4.4-8.1-6.1c11.5-2.3,23.7-2,36,0.7
		c18.9,4.2,36.7,14,50.1,27.5c13.1,13.2,20.3,28.6,20.4,43.2c-0.1,1.6-1.7,21.2-24.2,35.1c-11.1,6.9-24.8,8.1-35.1,7.8
		c-0.5-22.5-7.1-57.2-21-83.7c-1.3-2.4-3.4-4.2-6-5c-2.6-0.8-5.4-0.6-7.8,0.7c-2.4,1.3-4.2,3.4-5,6c-0.8,2.6-0.6,5.4,0.7,7.8
		c8,15.1,14.3,36.4,17.2,56.6c-4.2-4.8-8.7-8.4-13.3-10.7c-16.3-9.5-44.6-6.3-67.5,7.5c-4.8,2.9-6.4,9.2-3.5,14.1
		c1.8,3,5.2,4.9,8.8,4.9c0,0,0,0,0,0c1.9,0,3.7-0.5,5.3-1.5c3.7-2.3,7.6-4.2,11.6-5.7c-7.1,11.1-13.1,26-17.4,43.7
		C59.6,235.1,58.8,272.2,65.4,301.3z M123.8,159.1c-3.6-0.4-7.4-0.6-11.3-0.8c0.9-0.6,1.8-1,2.6-1.3
		C117.7,156.1,120.6,156.8,123.8,159.1z M384.9,157c0.9,0.3,1.8,0.8,2.7,1.4c-0.3,0-0.6,0-0.9,0h0c-3.7,0.2-7.2,0.4-10.5,0.7
		c2.3-1.7,4.4-2.5,6.4-2.5C383.4,156.6,384.2,156.8,384.9,157z M132.8,181.2c-4.3,9.8-7.2,20-8.6,30.6c-7.8-4.7-18.1-14.2-21.7-33.1
		C110,178.7,122.5,179,132.8,181.2z M397.5,178.7c-3.6,19.4-14.3,28.9-22.3,33.5c-1.4-10.7-4.2-21.1-8.6-30.9
		C377,179,389.8,178.7,397.5,178.7z"/>
</g>
</svg>
