<?xml version="1.0" encoding="utf-8"?>
<!-- Generator: Adobe Illustrator 21.0.0, SVG Export Plug-In . SVG Version: 6.00 Build 0)  -->
<svg version="1.1" id="Layer_1" xmlns="http://www.w3.org/2000/svg" xmlns:xlink="http://www.w3.org/1999/xlink" x="0px" y="0px"
	 viewBox="0 0 500 500" style="enable-background:new 0 0 500 500;" xml:space="preserve">
<style type="text/css">
	.st0{fill:#279220;}
</style>
<g>
	<path class="st0" d="M496.5,354c-0.3-0.3-14.6-15.8-17.8-33.1c-2.7-14.6,0.7-27.1,4.8-41.6c3.6-12.8,7.2-26.2,7.2-42.5
		c0-37.5-21.4-65.2-60.3-78.1c-24.5-8.2-65.7-7.8-109.3-7.2c-50.7,0.5-108.1,1.2-131.4-13.4c-3.3-2.1-6.5-10.8-8.4-16.6
		c16.6-8.1,27.8-23.7,30.3-42.2c1.8-13.5-1.2-27-8.4-38.2c-8-12.4-20.2-20.9-35.5-24.6c-25.8-6.3-50.5-0.1-71.5,18
		C84.2,45,76.7,56.4,73.8,61.4C31.1,97.4,3.1,142.6,2,144.5c-1.7,2.8-2.1,6.1-1,9.2L5.5,167c3.6,10.6,13.6,17.6,24.7,17.6
		c1.8,0,3.5-0.2,5.2-0.5c11.1-2.2,21.4-2.8,31.5-3.4c12-0.8,23.5-1.6,34.3-5c3.4,7.5,6.4,18.4,9.8,30.9
		c10.5,38.2,24.6,90.3,70.5,114.3l12.6,52.8v64.5l-15.8,36.4c-1.4,3.3-1.1,7.1,0.9,10.2s5.4,4.9,9,4.9h38.6
		c5.7,0,10.5-4.5,10.8-10.1l8.5-140.4c2.7,0.2,5.5,0.3,8.3,0.4c6,0.3,11.1-4.3,11.3-10.3c0.2-6-4.5-11-10.3-11.3
		c-2.6-0.1-5.3-0.2-7.9-0.4l0.5-8.7c0.3-6-4.2-11.1-10.1-11.5c-2.9-0.2-5.7,0.8-7.9,2.7c-2.2,2-3.4,4.6-3.6,7.5l-8.1,133.9l-2.4-0.8
		c0-0.1,0-0.2,0-0.3v-68c0-0.8-0.1-1.7-0.3-2.5l-14.1-59c-0.8-3.3-3-5.9-6-7.3c-40.5-18.4-53.2-65.1-63.4-102.6
		c-3.8-13.9-7.1-26-11.5-35.4c4.5-3.6,8.4-8,11.9-13.1c1.7-2.4,2.2-5.3,1.7-8.1s-2.2-5.3-4.6-6.9c-5-3.3-11.7-2.1-15,2.9
		c-11.1,16.4-26.1,17.3-48.7,18.7c-10.2,0.6-21.7,1.4-34.2,3.8c-2.4,0.4-4.7-0.7-5.4-2.9l-2.9-8.3c7.3-11.1,29.1-41.9,58.8-68.6
		c22.4,18.8,47.1,14.5,48.2,14.3c3.9-0.7,7.1-3.6,8.3-7.5c3-9.6,8.8-10.1,11.1-10c2.5,0.2,5.5,1.6,5.9,4.9c0.5,3.6-0.1,6.2-1.9,8.3
		c-4.6,5.4-16.2,7.2-21.2,7.3c-4.7,0.1-8.7,3-10.1,7.5c-1.4,4.3,0,9.2,3.7,12c1,0.8,10.5,7.7,24.6,8c3.4,0.1,6.7-0.1,9.9-0.4
		c3.9,12.2,8.5,23.3,17.8,29.1c28.7,17.9,86.8,17.3,143.1,16.7v-3.6l0.2,3.6c41.7-0.4,81.1-0.9,102.1,6.1
		c37.7,12.5,45.5,38.3,45.5,57.5c0,13.4-3.3,25.3-6.5,36.7c-4.3,15.6-8.9,31.9-5.2,51.4c3.3,17.6,14.2,32.9,19.8,39.8L466,442.4
		l-5.4-1.8l10.1-73c0.6-4.1-1.3-8.3-4.8-10.6c-50.2-33-67.6-63.6-72.8-75.3c-2.4-5.5-8.8-8-14.3-5.5c-2.7,1.1-4.7,3.3-5.7,6
		s-0.9,5.7,0.2,8.3c0.8,1.9,1.8,3.8,2.8,5.9c-17.8,6.5-55.2,18.6-91.4,20.7c-6,0.3-10.6,5.5-10.1,11.5c0.3,5.7,5.1,10.2,10.8,10.2
		c0.2,0,0.4,0,0.6,0c42.9-2.5,86.2-17.6,101.9-23.7c14.7,20,35,38.8,60.3,56.2l-9.1,65.9L423,474.4c-1.4,3.3-1.1,7.1,0.9,10.2
		s5.4,4.9,9,4.9h38.5c5.3,0,9.9-3.9,10.8-9.2l17.3-117.5C499.9,359.7,498.8,356.5,496.5,354z M176.9,81.7
		c-1.8-12.7-12.3-22.4-25.6-23.5c-0.8-0.1-1.7-0.1-2.6-0.1c-11.7,0-22,6.7-28,18c-1.8-0.1-3.9-0.3-6.4-0.8
		c-6.7-1.3-12.7-4.2-18.1-8.7c3.2-4.6,8-10.3,14.3-15.8c15.6-13.6,33.2-18,52.2-13.4c21.7,5.3,29.5,23.9,27.5,38.9
		c-1.7,13-8.7,20.3-15.8,24.3C177,95.1,177.8,88.6,176.9,81.7z M204.8,468l3.1-7.1l9,3l-0.2,4.1H204.8z M462.5,464.2L462,468h-12.7
		l3.1-7.1L462.5,464.2z"/>
	<path class="st0" d="M249.8,240.8c-6.1,0-11.1,5-11.1,11.2c0,6.2,5,11.2,11.2,11.2c6.1,0,11.2-5,11.2-11.2
		C261.1,245.7,256,240.8,249.8,240.8L249.8,240.8z"/>
</g>
</svg>
