<?xml version="1.0" encoding="utf-8"?>
<!-- Generator: Adobe Illustrator 21.0.0, SVG Export Plug-In . SVG Version: 6.00 Build 0)  -->
<svg version="1.1" id="Layer_1" xmlns="http://www.w3.org/2000/svg" xmlns:xlink="http://www.w3.org/1999/xlink" x="0px" y="0px"
	 viewBox="0 0 500 500" style="enable-background:new 0 0 500 500;" xml:space="preserve">
<style type="text/css">
	.st0{fill:#279220;}
</style>
<g>
	<path class="st0" d="M159.8,213c-9.9,0-18,8.1-18,18s8.1,18,18,18s18-8.1,18-18S169.8,213,159.8,213z"/>
	<path class="st0" d="M340.2,249.1c9.9,0,18-8.1,18-18s-8.1-18-18-18c-9.9,0-18,8.1-18,18S330.2,249.1,340.2,249.1z"/>
	<path class="st0" d="M480,107.9L480,107.9c-12.8-8.2-42.2-20.3-71-19.8c-1-0.2-2-0.3-3-0.3c-5.2,0.2-10.3,1.1-15,2.5
		c-3.6,0.9-7,2.1-10.1,3.5c-2.9,1.3-5.7,2.4-8.6,3.3c0-10.7-4.1-21-11.8-29c-8.8-9.3-21.7-14.8-35.2-15.1l-0.2,0
		c-6,0-12,1.1-17.6,3.1c-6.6-18.9-24.3-33.3-45.9-37.1c-30.3-5.4-59.9,10.8-69.1,37.1c-5.6-2.1-11.6-3.1-17.6-3.1l-0.2,0
		c-19.9,0.4-37.1,11.7-44,28.7c-2,4.9-3,10.1-3,15.4c-2.9-0.9-5.8-2-8.6-3.3c-3.1-1.4-6.5-2.6-10.1-3.5c-4.8-1.4-9.8-2.3-15-2.5
		c-1,0-2,0.1-3,0.3c-28.8-0.4-58.2,11.6-71,19.8c-9.1,5.9-13.4,11.6-13.4,18c0,16.8,16.5,48.1,48.1,48.1c15.1,0,30.7,0.2,42.6,2.8
		c14.5,3.2,14.5,7.7,14.5,9.2c0,19.8,2,38.4,3.9,56.4c1.8,17.1,3.6,33.2,3.6,49.4c0,36.9,4.4,62.1,14.8,84.1
		c10.3,21.9,26.7,41.2,54.9,64.7c7.3,24.4,32.2,41.4,61,41.4s53.7-17,61-41.4c28.2-23.5,44.6-42.8,54.9-64.7
		c10.4-22,14.8-47.2,14.8-84.1c0-16.3,1.7-32.4,3.6-49.5c1.9-18,3.9-36.6,3.9-56.4c0-1.5,0-6,14.5-9.2c11.9-2.6,27.6-2.8,42.6-2.8
		c31.6,0,48.1-31.3,48.1-48.1C493.4,119.5,489.2,113.7,480,107.9z M314,394.1c-5.4-2.1-11.5,0.5-13.6,5.9
		c-5.4,13.8-13.2,21.8-23.1,23.8c-6.9,1.4-13.2-0.3-16.7-2v-12.7c7.4-5.5,21.5-16.2,25.9-19.5c4.6-3.5,5.5-10.1,2-14.7
		c-1.7-2.2-4.2-3.7-6.9-4.1c-2.8-0.4-5.5,0.3-7.8,2c-7.6,5.7-17.4,13.2-23.7,17.8l-23.8-17.8c-2.2-1.7-5-2.4-7.8-2
		c-2.8,0.4-5.2,1.9-6.9,4.1c-1.7,2.2-2.4,5-2,7.8s1.9,5.2,4.1,6.9l25.8,19.4v12.7c-3.5,1.7-9.9,3.4-16.7,2
		c-9.9-2-17.6-10.1-23.1-23.8c-1.6-4.1-5.6-6.7-9.8-6.7c-1.3,0-2.6,0.2-3.8,0.7c-4,1.6-6.5,5.3-6.6,9.3
		c-29.7-30.5-39.1-58.6-39.1-111.6c0-17.4-1.8-34.1-3.7-51.8c-1.9-17.4-3.8-35.4-3.8-54c0-15-10.7-25.3-31-29.7
		c-14-3.1-31-3.3-47.2-3.3c-16.8,0-25.4-16.6-26.8-24.9c3.7-3.2,15-9.7,31.7-14.4c16.6-4.7,32.2-5.8,43.8-3.1
		c9,2.8,16.6,9.1,22.5,18.7c6.5,10.4,8.6,21.1,8.7,21.2c0.9,5,5.3,8.6,10.3,8.6c0.6,0,1.3-0.1,1.9-0.2c5.7-1.1,9.5-6.6,8.4-12.3
		c-0.1-0.3-0.9-4.9-3.3-11.5c1.5,0.8,3.1,1.6,4.8,2.2c0.4,12.5,5.9,24.1,15.7,32.9c9.9,9,23,14,37,14.1h0.1
		c15.9,0,30.8-6.6,40.6-17.7c9.8,11.1,24.7,17.7,40.6,17.7h0.2c14-0.2,27.1-5.2,36.9-14.1c9.8-8.9,15.3-20.5,15.7-32.9
		c1.6-0.7,3.2-1.4,4.8-2.2c-2.4,6.5-3.3,11.2-3.3,11.5c-1.1,5.7,2.7,11.2,8.4,12.3c0.6,0.1,1.3,0.2,1.9,0.2c5.1,0,9.4-3.6,10.3-8.6
		c0.1-0.3,6.5-32.1,31.5-39.9c11.6-2.6,27.1-1.5,43.5,3.2c16.6,4.7,28,11.2,31.7,14.4c-1.4,8.3-10.1,24.9-26.8,24.9
		c-16.2,0-33.2,0.3-47.2,3.3c-20.3,4.5-31,14.7-31,29.7c0,18.6-1.9,36.6-3.8,54.1c-1.9,17.6-3.7,34.3-3.7,51.7
		c0,53-9.4,81.1-39.1,111.6C320.4,399.4,317.9,395.7,314,394.1z M250,461c-15.5,0-29.6-7.1-36.9-18c4.7,1.6,9.7,2.4,14.8,2.4
		c3.1,0,6.2-0.3,9.2-0.9c4.6-0.9,9.1-2.4,12.9-4.4c3.8,2,8.3,3.5,12.9,4.4c3.1,0.6,6.2,0.9,9.2,0.9c5.1,0,10.1-0.8,14.8-2.4
		C279.6,453.9,265.5,461,250,461z M348.4,102.6c-1.8,5.3-6.2,10-11.9,12.7c-1.1,0.5-2.2,1-3.4,1.3c-7.9,2.4-13.2,9.7-12.7,17.7
		l0.1,1.3c0,6.5-2.9,12.8-8.2,17.6c-5.7,5.2-13.4,8.1-21.7,8.2c-10.4,0-20.1-4.8-25.4-12.5c-3.4-4.8-9.1-7.7-15.2-7.7
		c-3.2,0-6.4,0.8-9.2,2.4c-2.4,1.3-4.5,3.2-6.1,5.5c-5.3,7.6-15,12.4-25.3,12.4c-8.3-0.1-16.1-3-21.8-8.2c-5.3-4.8-8.2-11-8.2-17.6
		l0.1-1.3c0.4-7.9-4.8-15.2-12.6-17.6c-1.2-0.4-2.3-0.8-3.4-1.4c-5.1-2.4-9-6.2-11.1-10.7c-0.3-0.6-0.6-1.3-0.8-2
		c-1.4-4.1-1.2-8.3,0.4-12.3c3.4-8.3,12.7-14.1,23.1-14.4c4.2,0,8.3,1,11.9,2.7c8.6,4.2,19.2,1.4,24.1-6.6c1-1.6,1.7-3.3,2.1-5
		l0-0.2c4-17.6,23.9-28.9,44.4-25.3c14.8,2.6,26.3,12.6,29.2,25.3l0,0.2c2.3,9.3,11.7,15.1,21.5,13.2c1.7-0.3,3.3-0.9,4.8-1.6
		c3.6-1.8,7.7-2.7,11.8-2.7c7.4,0.2,14.3,3.1,19,8c3.7,3.9,5.6,8.7,5.5,13.6C349.3,99.1,349,100.8,348.4,102.6z"/>
</g>
</svg>
