<?xml version="1.0" encoding="utf-8"?>
<!-- Generator: Adobe Illustrator 21.0.0, SVG Export Plug-In . SVG Version: 6.00 Build 0)  -->
<svg version="1.1" id="Layer_1" xmlns="http://www.w3.org/2000/svg" xmlns:xlink="http://www.w3.org/1999/xlink" x="0px" y="0px"
	 viewBox="0 0 500 500" style="enable-background:new 0 0 500 500;" xml:space="preserve">
<style type="text/css">
	.st0{fill:#279220;}
</style>
<path class="st0" d="M479.8,234.1c-6.1-10.5-14.5-19-25-25c-10.5-6.1-22.3-9.2-34.8-9.2c-16.6,0-31.2,5.7-44.7,17.3l-8.5,7.3
	l-2.2-11c-7.4-36.3-13.3-63-17.6-79.3l-0.2-0.8v-0.7c-4.1-17.8-11.9-33-23.1-45.4c-5.7-6.4-11.3-11.1-16.5-13.9l-0.3-0.2
	c-6.1-3.7-12.3-5.5-19-5.5c-5.7,0-11.1,1.2-16.1,3.5l-0.1,0c-3,1.3-6.9,3.8-11.6,7.4l-10,8l-10-8c-4.7-3.6-8.6-6.1-11.6-7.4l-0.1,0
	c-5-2.3-10.4-3.5-16.1-3.5c-6.7,0-12.9,1.8-19,5.5l-0.3,0.2c-5.2,2.8-10.8,7.5-16.5,13.9c-11.3,12.4-19,27.6-23.1,45.4v0.7l-0.2,0.8
	c-4.3,16.3-10.2,43-17.6,79.3l-2.2,11l-8.5-7.3c-13.5-11.6-28.1-17.3-44.7-17.3c-12.5,0-24.3,3.1-34.8,9.2c-10.5,6.1-19,14.5-25,25
	c-6.1,10.5-9.2,22.2-9.2,34.8c0,48.2,15.3,86,45.6,112.5c38.7,33.7,103.7,50.9,193.4,50.9c89.7,0,154.8-17.2,193.4-50.9
	c30.2-26.5,45.6-64.4,45.6-112.5C489,256.3,485.9,244.6,479.8,234.1z M156.8,229.8c8.5-41.6,15.2-71.7,19.9-89.3v-0.4l0.2-0.7
	c3-13.7,9.1-25.6,18.1-35.5l0.2-0.2c3.5-3.5,7.6-6.8,12.3-9.8l0.7-0.4l0.8-0.3c1.1-0.4,1.7-0.6,1.7-0.6l2.6-0.9l2.5,1.2
	c3.5,1.7,6.9,3.9,10.4,6.5l9.8,6.9c5.1,3.2,9.9,4.8,14.1,4.8s8.9-1.6,14.1-4.8l9.8-6.9c3.4-2.6,6.9-4.7,10.4-6.5l2.5-1.2l2.6,0.9
	c0,0,0.6,0.2,1.7,0.6l0.8,0.3l0.7,0.4c4.7,3,8.9,6.3,12.3,9.8l0.2,0.2c9,9.9,15.1,21.8,18.1,35.5l0.2,0.7v0.4
	c4.8,17.6,11.5,47.6,19.9,89.3l0.9,4.3l-7.2,4.8l-0.3,0.2c-19.8,11.6-48.9,17.4-86.5,17.4s-66.7-5.9-86.5-17.4l-0.3-0.2l-7.2-4.8
	L156.8,229.8z M149,259.6l9.4,4.6c23.4,11.3,54.2,17.1,91.6,17.1s68.2-5.7,91.6-17.1l9.4-4.6v10.5c0,16-2.6,27.9-8.1,36.6l-0.1,0.1
	c-4.6,7-12.4,12.8-23,17.2c-8.2,3.4-19,5.7-33.2,7c-8.9,0.8-20.8,1.2-36.6,1.2s-27.7-0.4-36.6-1.2c-14.2-1.3-25.1-3.5-33.2-7
	c-10.6-4.4-18.3-10.2-23-17.2l-0.1-0.1c-5.5-8.6-8.1-20.6-8.1-36.6V259.6z M456.9,319.5c-5.9,16.7-15.8,31.4-29.6,43.5
	c-33.7,29.7-93.3,44.7-177,44.7c-0.1,0-0.2,0-0.3,0c-0.1,0-0.2,0-0.3,0c-83.7,0-143.3-15-177-44.7c-13.8-12.1-23.7-26.7-29.6-43.5
	c-4.9-14-7.5-31-7.5-50.6c0-13.2,4.1-24,12.3-32.1c8.1-8.1,18.9-12.3,32.1-12.3c12.7,0,23.3,4,31.4,11.9
	c8.1,7.9,12.5,18.1,12.9,30.4l0,1.6l-0.2,0.7c-0.5,2.4-0.4,4.7,0.4,7.1l0.8,2.5l0.1,0.8c1.5,16.4,6.6,30.8,15.3,42.8
	C148.7,333,158.8,341,171,346l0.1,0c11.1,4.8,24.2,8,38.8,9.5c8.6,0.8,21.4,1.1,37.7,1.1h2.4h2.4c16.3,0,29.1-0.4,37.7-1.1
	c14.6-1.5,27.6-4.7,38.8-9.5l0.1,0c12.2-5,22.4-13,30.2-23.8c8.7-12,13.8-26.3,15.3-42.8l0.1-0.8l0.8-2.5c0.8-2.4,0.9-4.7,0.4-7.1
	l-0.2-0.7l0-1.6c0.5-12.3,4.8-22.6,12.9-30.4c8.1-7.9,18.7-11.9,31.4-11.9c13.2,0,24,4.1,32.1,12.3c8.1,8.1,12.3,18.9,12.3,32.1
	C464.4,288.4,461.9,305.5,456.9,319.5z"/>
</svg>
