<?xml version="1.0" encoding="utf-8"?>
<!-- Generator: Adobe Illustrator 21.0.0, SVG Export Plug-In . SVG Version: 6.00 Build 0)  -->
<svg version="1.1" id="Layer_1" xmlns="http://www.w3.org/2000/svg" xmlns:xlink="http://www.w3.org/1999/xlink" x="0px" y="0px"
	 viewBox="0 0 500 500" style="enable-background:new 0 0 500 500;" xml:space="preserve">
<style type="text/css">
	.st0{fill:#279220;}
</style>
<g>
	<path class="st0" d="M454.3,284.2c-11.1-19.1-26.5-34.4-45.5-45.5c-19.1-11.1-40-16.8-62.3-16.8c-13.2,0-26.2,2.1-38.7,6.3
		c-12.5,4.2-24,10.1-34.4,17.5l-2.2,1.6l-2.3-1.5c-6.1-3.9-13.5-7.7-22-11.3l-6.8-2.9l6.2-4.2c14.8-10,26.6-23,35.1-38.8
		c8.5-15.7,12.8-33,12.8-51.3c0-19.6-4.9-37.9-14.5-54.5c-9.6-16.6-22.9-29.8-39.5-39.5c-16.6-9.6-34.9-14.5-54.5-14.5
		c-19.6,0-38,4.9-54.5,14.5c-16.6,9.6-29.8,22.9-39.5,39.5c-9.6,16.6-14.5,34.9-14.5,54.5c0,18.3,4.3,35.6,12.8,51.3
		c8.5,15.8,20.3,28.8,35.1,38.8l6.1,4.1l-6.7,2.9c-18.6,8.1-35.3,19.5-49.8,33.8c-14.5,14.3-25.7,30.9-33.5,49.4
		c-7.6,18-11.7,37-12.2,56.7h24.1c0.6-22.5,6.6-43.6,17.8-62.6c11.9-20.1,28.1-36.3,48.2-48.2c20.1-11.9,42.5-17.9,66.6-17.9
		c22,0,43.1,5.4,62.7,16.1l4.2,2.3l-3,3.8c-8.7,11-15.6,23.3-20.5,36.6c-4.8,13.2-7.3,27.3-7.3,41.8c0,22.3,5.6,43.2,16.8,62.3
		c11.1,19.1,26.5,34.4,45.5,45.5c19,11.1,40,16.8,62.3,16.8c22.3,0,43.2-5.6,62.3-16.8c19.1-11.2,34.4-26.5,45.5-45.5
		c11.1-19,16.8-40,16.8-62.3C471.1,324.2,465.4,303.2,454.3,284.2z M185.7,221.9c-15.4,0-29.7-3.8-42.5-11.4
		c-12.8-7.5-23.1-17.8-30.6-30.6c-7.5-12.8-11.4-27.1-11.4-42.5c0-15.4,3.8-29.7,11.4-42.5c7.5-12.8,17.8-23,30.6-30.6
		C156,56.8,170.3,53,185.7,53c15.4,0,29.7,3.8,42.5,11.4c12.8,7.5,23,17.8,30.6,30.6c7.5,12.8,11.4,27.1,11.4,42.5
		c0,15.4-3.8,29.7-11.4,42.5c-7.5,12.8-17.8,23.1-30.6,30.6C215.4,218,201.1,221.9,185.7,221.9z M433.3,396.8
		c-9,15.3-21.3,27.6-36.6,36.6c-15.3,9-32.2,13.6-50.3,13.6c-18.1,0-35-4.6-50.3-13.6c-15.3-9-27.6-21.3-36.6-36.6
		c-9-15.3-13.6-32.2-13.6-50.3c0-18.1,4.6-35,13.6-50.3c9-15.3,21.3-27.6,36.6-36.6h0c15.3-9,32.2-13.6,50.3-13.6
		c18.1,0,35,4.6,50.3,13.6c15.3,9,27.6,21.3,36.6,36.6c9,15.3,13.6,32.2,13.6,50.3C447,364.5,442.4,381.5,433.3,396.8z"/>
	<polygon class="st0" points="346.5,361.2 309.8,324.5 292.4,342 337.7,387.3 346.5,395.7 355.2,387.3 416.6,325.9 399.2,308.5 	"/>
</g>
</svg>
